<svg xmlns="http://www.w3.org/2000/svg"  viewBox="0 0 48 48" width="240px" height="240px"><path fill="#14b6b9" d="M39.523,29.659c-0.356-0.184-0.685,0.355-2.244,1.122c-1.145,0.563-1.213,0.394-2.927,1.171 c-0.964,0.437-1.632,0.803-2.268,1.463c-0.254,0.264-0.439,0.508-0.561,0.683c0.105,0.482,0.251,1.134,0.439,1.902 c0.467,1.909,0.884,3.286,0.976,3.585c0.174,0.571,0.409,1.31,0.707,2.171c0.51,0.027,1.274-0.014,2-0.439 c0.753-0.44,1.116-1.088,1.829-2.707c0.948-2.152,1.422-3.228,1.732-4.415C39.534,32.937,40.287,30.055,39.523,29.659z"/><path fill="#bcbcbc" d="M10.541,7.628c1.699-0.73,3.602-0.312,4.866-0.11c0.389,0.062,2.473,0.084,6.64,0.128 c4.137,0.043,3.41-0.133,6.439-0.055c2.467,0.063,4.209,0.212,7.061,0c0.8-0.06,1.459-0.131,1.902-0.183 c0.17-0.125,0.507-0.331,0.896-0.274c0.126,0.018,0.598,0.113,1.079,1.043c0.566,1.093,0.46,2.018,0.512,4.079 c0.033,1.291,0.073,0.848,0.11,2.268c0.05,1.945-0.027,2.786-0.165,6.549c-0.057,1.549-0.361,3.107-0.183,4.646 c0.138,1.191,0.436,2.452-0.293,3.567c-0.233,0.357-0.476,0.552-0.86,0.86c-0.963,0.773-1.538,0.795-3.896,1.756 c-1.007,0.411-1.618,0.698-2.305,1.171c-0.399,0.275-0.709,0.532-0.915,0.713c0.05,0.366,0.138,0.966,0.274,1.701 c0.249,1.344,0.473,2.126,1.024,4.372c0.117,0.477,0.296,1.212,0.512,2.122c-0.631,0.043-1.666,0.108-2.945,0.165 c-2.992,0.133-3.758,0.063-8.323,0.146c-2.573,0.047-2.883,0.08-3.878,0.018c-1.102-0.068-2.259-0.265-4.573-0.659 c-1.692-0.288-2.242-0.422-2.89-0.841c-0.287-0.186-1.137-0.75-1.665-1.829c-0.153-0.312-0.423-0.963-0.421-2.616 c0.002-1.553,0.242-2.218,0.439-3.768c0.087-0.681,0.119-1.747,0.183-3.878c0.023-0.754,0.071-2.539,0.073-4.994 c0.002-2.307,0.003-3.46-0.073-5.067c-0.11-2.328-0.165-3.492-0.311-4.335c-0.186-1.076-0.459-2.153-0.329-3.695 c0.066-0.78,0.212-1.409,0.64-1.976C9.354,8.408,9.746,7.97,10.541,7.628z"/><path d="M19.396,42.759c-1.954,0-3.929-0.082-5.876-0.417c-2.661-0.458-4.367-1.503-5.072-3.105 c-0.524-1.195-0.388-2.539-0.266-3.725C8.955,27.943,8.93,20.29,8.111,12.747c-0.207-1.912-0.211-4.01,1.33-5.081 c0.913-0.635,2.093-0.637,2.953-0.638L37.04,6.997c0.384-0.141,1.652-0.536,2.328,0.154c0.646,0.659,0.822,1.558,0.949,2.422 c0.661,4.532,0.363,9.297,0.076,13.905c-0.116,1.854-0.236,3.77-0.287,5.615c-0.06,2.127-0.122,4.327-0.77,6.436 c-0.499,1.63-1.327,3.121-2.128,4.563c-0.384,0.691-0.861,1.55-1.721,2.007c-0.692,0.368-1.489,0.384-2.13,0.397l-11.173,0.225 C21.265,42.74,20.332,42.759,19.396,42.759z M38.29,7.753c-0.299,0-0.694,0.096-0.966,0.207c-0.06,0.024-0.124,0.038-0.188,0.038 L12.396,8.028c-0.945,0.001-1.777,0.037-2.385,0.459C8.9,9.26,8.929,11.02,9.105,12.639c0.827,7.612,0.852,15.336,0.073,22.955 c-0.115,1.134-0.233,2.287,0.186,3.24c0.561,1.275,2.017,2.124,4.326,2.522c2.784,0.479,5.678,0.421,8.477,0.365l11.173-0.225 c0.562-0.011,1.198-0.024,1.681-0.28c0.598-0.318,0.995-1.034,1.314-1.61c0.776-1.396,1.578-2.84,2.047-4.371 c0.608-1.979,0.668-4.109,0.726-6.17c0.052-1.862,0.172-3.788,0.289-5.649c0.284-4.557,0.578-9.269-0.068-13.698 c-0.102-0.701-0.238-1.423-0.673-1.866C38.585,7.781,38.452,7.753,38.29,7.753z M37.134,7.497h0.01H37.134z"/><path d="M33.467,42.492c-0.206,0-0.399-0.128-0.472-0.334c-0.813-2.308-1.497-4.716-2.036-7.158 c-0.072-0.316-0.209-0.912,0.085-1.418c0.183-0.305,0.456-0.477,0.675-0.616c1.198-0.721,2.452-1.306,3.665-1.872 c0.881-0.411,1.793-0.837,2.656-1.302c0.389-0.208,0.809-0.459,1.283-0.769c0.232-0.15,0.541-0.085,0.692,0.146 c0.15,0.231,0.086,0.541-0.146,0.692c-0.5,0.326-0.944,0.592-1.357,0.812c-0.887,0.478-1.813,0.91-2.707,1.327 c-1.188,0.555-2.418,1.128-3.551,1.81c-0.146,0.092-0.293,0.185-0.35,0.279c-0.092,0.159-0.01,0.519,0.029,0.691 c0.531,2.406,1.205,4.775,2.004,7.045c0.092,0.26-0.045,0.546-0.306,0.638C33.579,42.483,33.522,42.492,33.467,42.492z"/><path d="M14.591,14.834c-0.064,0-0.13-0.007-0.193-0.022c-0.426-0.101-0.704-0.536-0.608-0.949 c0.056-0.241,0.233-0.438,0.475-0.528c0.092-0.034,0.197-0.052,0.275-0.047c0.048-0.021,0.101-0.036,0.157-0.041l0.288-0.026 c0.134-0.012,0.265,0.028,0.366,0.112c0.103,0.084,0.167,0.206,0.18,0.338c0.027,0.295-0.047,0.576-0.21,0.792 C15.14,14.699,14.869,14.834,14.591,14.834z"/><path d="M18.068,14.597c-0.255,0-0.473-0.194-0.497-0.454c-0.025-0.275,0.177-0.519,0.452-0.544 c4.615-0.429,9.299-0.498,13.922-0.2c0.275,0.018,0.484,0.255,0.467,0.531c-0.018,0.277-0.285,0.475-0.531,0.467 c-4.57-0.293-9.202-0.228-13.766,0.198C18.099,14.597,18.083,14.597,18.068,14.597z"/><path d="M14.567,20.193c-0.091,0-0.18-0.013-0.266-0.04c-0.246-0.076-0.453-0.261-0.565-0.507 c-0.111-0.242-0.117-0.515-0.017-0.749c0.106-0.244,0.32-0.428,0.588-0.506c0.265-0.078,0.54-0.037,0.758,0.111 c0.175,0.119,0.301,0.304,0.354,0.516c0.099,0.123,0.125,0.3,0.077,0.474c-0.066,0.243-0.236,0.454-0.466,0.58 C14.885,20.153,14.725,20.193,14.567,20.193z"/><path d="M28.82,20.631c-0.64,0-1.27-0.038-1.868-0.073l-8.424-0.502c-0.276-0.017-0.486-0.253-0.47-0.529 c0.016-0.275,0.249-0.489,0.528-0.469l8.424,0.502c1.511,0.09,3.222,0.191,4.692-0.372c0.257-0.099,0.547,0.03,0.646,0.288 s-0.03,0.547-0.288,0.646C31.011,20.524,29.9,20.631,28.82,20.631z"/><path d="M14.567,24.762c-0.046,0-0.094-0.004-0.141-0.011c-0.069-0.012-0.133-0.037-0.188-0.072 c-0.222-0.091-0.403-0.279-0.491-0.517c-0.097-0.261-0.07-0.552,0.07-0.776c0.141-0.224,0.38-0.371,0.656-0.402 c0.271-0.035,0.543,0.058,0.731,0.246c0.271,0.27,0.34,0.698,0.167,1.042C15.216,24.574,14.899,24.762,14.567,24.762z"/><path d="M27.42,25.359c-0.864,0-1.707-0.053-2.501-0.121c-0.544-0.046-1.088-0.101-1.632-0.155 c-1.732-0.174-3.523-0.353-5.265-0.23c-0.249,0.022-0.515-0.187-0.534-0.463c-0.02-0.275,0.188-0.515,0.464-0.534 c1.826-0.131,3.661,0.054,5.436,0.232c0.538,0.054,1.077,0.108,1.615,0.154c2.085,0.177,4.514,0.253,6.706-0.529 c0.261-0.091,0.547,0.043,0.639,0.303c0.093,0.26-0.043,0.546-0.303,0.639C30.533,25.194,28.942,25.359,27.42,25.359z"/><path d="M14.181,29.439c-0.266,0-0.529-0.109-0.711-0.313c-0.111-0.125-0.153-0.297-0.11-0.459c0.08-0.308,0.233-0.557,0.444-0.72 c0.325-0.25,0.758-0.278,1.079-0.068c0.206,0.134,0.342,0.365,0.363,0.618c0.021,0.241-0.064,0.47-0.234,0.627 c-0.077,0.071-0.171,0.114-0.269,0.128c-0.043,0.033-0.089,0.062-0.138,0.087C14.473,29.406,14.327,29.439,14.181,29.439z"/><path d="M27.278,30.026c-3.108,0-6.219-0.188-9.299-0.562c-0.273-0.034-0.469-0.283-0.436-0.557 c0.033-0.274,0.291-0.464,0.557-0.437c4.729,0.575,9.538,0.703,14.287,0.382c0.274-0.007,0.515,0.189,0.533,0.465 c0.019,0.275-0.189,0.514-0.465,0.533C30.735,29.968,29.006,30.026,27.278,30.026z"/></svg>