<?xml version="1.0" encoding="UTF-8"?>
<svg xmlns="http://www.w3.org/2000/svg" xmlns:xlink="http://www.w3.org/1999/xlink" viewBox="0 0 400 400" width="400px" height="400px">
<g id="surface111702814">
<path style=" stroke:none;fill-rule:nonzero;fill:rgb(100%,15.686275%,43.921569%);fill-opacity:1;" d="M 68 68 C 61.421875 68 56 73.421875 56 80 L 56 124 C 56 135.644531 60.582031 146.222656 68 154.101562 L 68 292 C 68 314.046875 85.953125 332 108 332 L 288 332 C 310.046875 332 328 314.046875 328 292 L 328 154.101562 C 335.417969 146.222656 340 135.644531 340 124 L 340 80 C 340 73.421875 334.578125 68 328 68 Z M 68 76 L 328 76 C 330.261719 76 332 77.738281 332 80 L 332 124 C 332 143.929688 315.929688 160 296 160 L 100 160 C 80.070312 160 64 143.929688 64 124 L 64 80 C 64 77.738281 65.738281 76 68 76 Z M 78 84 C 77.277344 83.988281 76.609375 84.367188 76.246094 84.992188 C 75.878906 85.613281 75.878906 86.386719 76.246094 87.007812 C 76.609375 87.632812 77.277344 88.011719 78 88 L 270 88 C 270.722656 88.011719 271.390625 87.632812 271.753906 87.007812 C 272.121094 86.386719 272.121094 85.613281 271.753906 84.992188 C 271.390625 84.367188 270.722656 83.988281 270 84 Z M 282 84 C 281.277344 83.988281 280.609375 84.367188 280.246094 84.992188 C 279.878906 85.613281 279.878906 86.386719 280.246094 87.007812 C 280.609375 87.632812 281.277344 88.011719 282 88 L 298 88 C 298.722656 88.011719 299.390625 87.632812 299.753906 87.007812 C 300.121094 86.386719 300.121094 85.613281 299.753906 84.992188 C 299.390625 84.367188 298.722656 83.988281 298 84 Z M 310 84 C 309.277344 83.988281 308.609375 84.367188 308.246094 84.992188 C 307.878906 85.613281 307.878906 86.386719 308.246094 87.007812 C 308.609375 87.632812 309.277344 88.011719 310 88 L 322 88 C 322.722656 88.011719 323.390625 87.632812 323.753906 87.007812 C 324.121094 86.386719 324.121094 85.613281 323.753906 84.992188 C 323.390625 84.367188 322.722656 83.988281 322 84 Z M 76 160.828125 C 82.910156 165.347656 91.148438 168 100 168 L 196 168 L 196 196 L 160 196 C 157.25 196 154.4375 197.035156 152.148438 198.734375 C 149.859375 200.433594 148 202.949219 148 206 L 148 214 C 148 219.5 152.5 224 158 224 L 196 224 L 196 304 L 122 304 C 107.617188 304 96 292.382812 96 278 L 96 182 C 96.007812 181.457031 95.796875 180.9375 95.414062 180.554688 C 95.03125 180.171875 94.511719 179.960938 93.96875 179.96875 C 93.4375 179.976562 92.933594 180.195312 92.5625 180.578125 C 92.195312 180.957031 91.992188 181.46875 92 182 L 92 278 C 92 294.542969 105.457031 308 122 308 L 197.679688 308 C 197.894531 308.035156 198.113281 308.035156 198.328125 308 L 274 308 C 290.542969 308 304 294.542969 304 278 L 304 226 C 304.011719 225.277344 303.632812 224.609375 303.007812 224.246094 C 302.386719 223.878906 301.613281 223.878906 300.992188 224.246094 C 300.367188 224.609375 299.988281 225.277344 300 226 L 300 278 C 300 292.382812 288.382812 304 274 304 L 200 304 L 200 224 L 238 224 C 243.5 224 248 219.5 248 214 L 248 206 C 248 200.5 243.5 196 238 196 L 200 196 L 200 168 L 264 168 L 264 198 C 264 198.738281 264.40625 199.414062 265.054688 199.761719 C 265.707031 200.109375 266.496094 200.074219 267.109375 199.664062 L 278 192.40625 L 288.890625 199.664062 C 289.503906 200.074219 290.292969 200.109375 290.945312 199.761719 C 291.59375 199.414062 292 198.738281 292 198 L 292 168 L 296 168 C 304.851562 168 313.089844 165.347656 320 160.828125 L 320 292 C 320 309.722656 305.722656 324 288 324 L 108 324 C 90.277344 324 76 309.722656 76 292 Z M 268 168 L 288 168 L 288 194.265625 L 279.109375 188.335938 C 278.4375 187.886719 277.5625 187.886719 276.890625 188.335938 L 268 194.265625 Z M 301.96875 179.96875 C 301.4375 179.976562 300.933594 180.195312 300.5625 180.578125 C 300.195312 180.957031 299.992188 181.46875 300 182 L 300 206 C 299.988281 206.722656 300.367188 207.390625 300.992188 207.753906 C 301.613281 208.121094 302.386719 208.121094 303.007812 207.753906 C 303.632812 207.390625 304.011719 206.722656 304 206 L 304 182 C 304.007812 181.457031 303.796875 180.9375 303.414062 180.554688 C 303.03125 180.171875 302.511719 179.960938 301.96875 179.96875 Z M 160 200 L 238 200 C 241.339844 200 244 202.660156 244 206 L 244 214 C 244 217.339844 241.339844 220 238 220 L 198.320312 220 C 198.105469 219.964844 197.886719 219.964844 197.671875 220 L 158 220 C 154.660156 220 152 217.339844 152 214 L 152 206 C 152 204.632812 152.933594 203.140625 154.539062 201.945312 C 156.144531 200.75 158.328125 200 160 200 Z M 125.96875 243.96875 C 125.34375 243.980469 124.761719 244.277344 124.390625 244.78125 L 116.585938 252.585938 C 116.0625 253.085938 115.851562 253.832031 116.035156 254.535156 C 116.21875 255.234375 116.765625 255.78125 117.464844 255.964844 C 118.167969 256.148438 118.914062 255.9375 119.414062 255.414062 L 124 250.828125 L 124 274 C 123.988281 274.722656 124.367188 275.390625 124.992188 275.753906 C 125.613281 276.121094 126.386719 276.121094 127.007812 275.753906 C 127.632812 275.390625 128.011719 274.722656 128 274 L 128 250.828125 L 132.585938 255.414062 C 133.085938 255.9375 133.832031 256.148438 134.535156 255.964844 C 135.234375 255.78125 135.78125 255.234375 135.964844 254.535156 C 136.148438 253.832031 135.9375 253.085938 135.414062 252.585938 L 127.59375 244.765625 C 127.210938 244.257812 126.605469 243.960938 125.96875 243.96875 Z M 153.96875 243.96875 C 153.34375 243.980469 152.761719 244.277344 152.390625 244.78125 L 144.585938 252.585938 C 144.0625 253.085938 143.851562 253.832031 144.035156 254.535156 C 144.21875 255.234375 144.765625 255.78125 145.464844 255.964844 C 146.167969 256.148438 146.914062 255.9375 147.414062 255.414062 L 152 250.828125 L 152 274 C 151.988281 274.722656 152.367188 275.390625 152.992188 275.753906 C 153.613281 276.121094 154.386719 276.121094 155.007812 275.753906 C 155.632812 275.390625 156.011719 274.722656 156 274 L 156 250.828125 L 160.585938 255.414062 C 161.085938 255.9375 161.832031 256.148438 162.535156 255.964844 C 163.234375 255.78125 163.78125 255.234375 163.964844 254.535156 C 164.148438 253.832031 163.9375 253.085938 163.414062 252.585938 L 155.59375 244.765625 C 155.210938 244.257812 154.605469 243.960938 153.96875 243.96875 Z M 114 280 C 113.277344 279.988281 112.609375 280.367188 112.246094 280.992188 C 111.878906 281.613281 111.878906 282.386719 112.246094 283.007812 C 112.609375 283.632812 113.277344 284.011719 114 284 L 166 284 C 166.722656 284.011719 167.390625 283.632812 167.753906 283.007812 C 168.121094 282.386719 168.121094 281.613281 167.753906 280.992188 C 167.390625 280.367188 166.722656 279.988281 166 280 Z M 114 280 "/>
</g>
</svg>
