<svg xmlns="http://www.w3.org/2000/svg"  viewBox="0 0 48 48" width="240px" height="240px"><path fill="#4b7bb2" d="M35.718,43.986c-3.092,0.147-7.816,0.585-12.801,0.556c-2.809-0.016-10.211,0.173-10.211,0.173	c-4.728,0-8.45-3.76-9.041-8.451c-0.202-1.601-0.767-4.98-0.58-6.478c0.398-3.196-0.219-8.009-0.083-9.326	c0.617-5.993,0.318-6.244,0.083-8.308C2.549,7.453,6.923,3.356,11.646,3.59c4.112,0.203,12.317,1.221,16.447,0.854	c3.11-0.276,5.41-0.727,7.224-0.854c4.717-0.33,8.529,2.544,8.561,8.561c0.009,1.612,0.585,3.57,0.527,6.425	c-0.07,3.469-0.495,6.546-0.527,8.105c-0.047,2.285-0.008,6.856,0,9.142C43.894,40.55,42.147,43.679,35.718,43.986z"/><path fill="#010101" d="M12.718,45.215c-4.812,0-8.912-3.822-9.549-8.889c-0.038-0.303-0.089-0.671-0.146-1.078	c-0.25-1.792-0.593-4.247-0.434-5.524c0.243-1.95,0.094-4.603-0.014-6.541c-0.07-1.252-0.125-2.241-0.07-2.775	c0.516-5.003,0.388-5.929,0.195-7.331c-0.037-0.265-0.075-0.545-0.112-0.869C2.333,9.977,3.13,7.692,4.774,5.939	c1.79-1.908,4.371-2.968,6.896-2.849c1.284,0.063,2.983,0.208,4.781,0.36c3.917,0.332,8.791,0.745,11.596,0.496	c1.625-0.145,3.025-0.336,4.26-0.506c1.125-0.155,2.097-0.288,2.974-0.349c2.527-0.177,4.811,0.548,6.421,2.041	c1.734,1.608,2.659,4.035,2.675,7.017c0.003,0.624,0.098,1.313,0.207,2.113c0.167,1.215,0.354,2.592,0.32,4.324	c-0.042,2.096-0.212,4.042-0.349,5.606c-0.089,1.015-0.165,1.891-0.178,2.499c-0.038,1.801-0.021,5.06-0.008,7.439l0.008,1.69	c0.02,5.707-2.644,8.379-8.636,8.665l0,0c-0.854,0.041-1.834,0.104-2.909,0.173c-2.806,0.181-6.296,0.4-9.919,0.384	C20.14,45.031,12.792,45.213,12.718,45.215z M11.267,4.081c-2.124,0-4.255,0.935-5.763,2.542c-1.464,1.561-2.147,3.504-1.923,5.472	c0.036,0.316,0.074,0.588,0.109,0.846c0.203,1.473,0.336,2.447-0.191,7.57c-0.047,0.456,0.009,1.458,0.074,2.617	c0.116,2.085,0.261,4.68,0.007,6.72c-0.143,1.146,0.204,3.623,0.433,5.262c0.057,0.412,0.109,0.784,0.148,1.091	c0.575,4.569,4.248,8.014,8.544,8.014c0.061-0.001,7.438-0.179,10.214-0.173c3.582,0.024,7.059-0.202,9.849-0.382	c1.082-0.069,2.066-0.133,2.926-0.174l0,0c5.475-0.261,7.701-2.48,7.684-7.662l-0.008-1.688c-0.013-2.385-0.03-5.651,0.008-7.465	c0.013-0.641,0.091-1.533,0.182-2.565c0.135-1.549,0.304-3.477,0.345-5.54c0.034-1.653-0.149-2.989-0.311-4.168	c-0.114-0.834-0.212-1.555-0.216-2.243c-0.015-2.699-0.829-4.873-2.355-6.289c-1.425-1.322-3.389-1.938-5.671-1.776	c-0.843,0.059-1.799,0.19-2.907,0.342c-1.246,0.171-2.659,0.365-4.307,0.511C25.245,5.201,20.53,4.8,16.368,4.447	c-1.79-0.151-3.479-0.295-4.747-0.357C11.503,4.083,11.385,4.081,11.267,4.081z"/><path fill="#d6e5e5" d="M11.693,11.953c1.442-0.099,2.652-0.14,4.12-0.14c1.999,0,3.657-0.452,5.563-0.313 c0.169,3.01,0.989,5.365,1.25,8.313c0.238,2.686,0.246,6.972,1.042,9.521c0.814-0.226,2.138-3.798,2.525-4.695 c0.693-1.608,1.219-3.014,1.652-4.736c0.57-2.263,1.043-5.81-0.344-7.84c1.428-0.022,3.693-0.383,5.062-0.813 c1.302-0.408,2.12-0.612,3.582-0.52c1.23,2.083,1.411,6.328,1.355,7.458c-0.162,3.275-1.187,5.295-2.813,8.063 c-0.818,1.392-2.249,3.836-2.937,5.313C31.038,33.09,27,37.5,27,37.5s-4.477-0.188-6.188-0.188c-1.097,0-3.441,0.476-4.437,0.125 c-0.125-0.438-0.69-3.709-1.059-5.644c-0.426-2.239-0.789-4.291-1.406-6.474c-0.675-2.391-0.711-4.955-1.245-7.403 C12.227,15.903,11.693,14.054,11.693,11.953z"/><path fill="#010101" d="M17.423,38.066c-0.517,0-0.913-0.052-1.214-0.157c-0.153-0.054-0.271-0.179-0.314-0.334 c-0.08-0.281-0.28-1.376-0.601-3.139c-0.161-0.891-0.329-1.816-0.469-2.55l-0.138-0.729c-0.368-1.944-0.716-3.78-1.259-5.704 c-0.391-1.383-0.573-2.829-0.75-4.229c-0.135-1.061-0.273-2.157-0.501-3.204c-0.08-0.366-0.163-0.727-0.246-1.085 c-0.38-1.65-0.739-3.21-0.739-4.984c0-0.263,0.203-0.48,0.466-0.499c1.463-0.1,2.666-0.141,4.154-0.141 c0.856,0,1.665-0.087,2.447-0.172c1.006-0.108,2.052-0.217,3.151-0.14c0.251,0.019,0.449,0.22,0.463,0.471 c0.089,1.578,0.355,2.947,0.638,4.396c0.24,1.231,0.488,2.505,0.611,3.9c0.063,0.719,0.111,1.552,0.161,2.437 c0.119,2.087,0.251,4.413,0.647,6.176c0.37-0.592,0.896-1.722,1.567-3.374c0.096-0.235,0.175-0.432,0.233-0.566 c0.774-1.8,1.246-3.149,1.627-4.66c0.389-1.546,1.141-5.366-0.272-7.436c-0.104-0.152-0.115-0.349-0.031-0.512 c0.085-0.164,0.253-0.268,0.437-0.271c1.395-0.021,3.603-0.376,4.921-0.79c1.244-0.39,2.166-0.64,3.763-0.542 c0.165,0.011,0.314,0.102,0.399,0.245c1.271,2.152,1.489,6.424,1.424,7.736c-0.17,3.432-1.301,5.601-2.88,8.291 c-0.722,1.228-2.222,3.782-2.916,5.271c-0.736,1.58-4.667,5.882-4.834,6.064c-0.1,0.109-0.233,0.164-0.39,0.162 c-0.045-0.002-4.486-0.188-6.167-0.188c-0.341,0-0.842,0.053-1.371,0.108C18.792,37.989,18.057,38.066,17.423,38.066z M16.794,37.026c0.562,0.087,1.648-0.006,2.543-0.1c0.557-0.059,1.082-0.114,1.476-0.114c1.497,0,5.024,0.14,5.976,0.179 c1.21-1.334,3.976-4.496,4.509-5.64c0.714-1.532,2.23-4.114,2.96-5.354c1.554-2.647,2.585-4.623,2.744-7.834 c0.056-1.138-0.131-4.94-1.16-6.948c-1.232-0.05-2.021,0.165-3.129,0.513c-1.158,0.363-2.965,0.683-4.39,0.794 c1.081,2.443,0.388,5.987,0.007,7.503c-0.395,1.565-0.881,2.96-1.679,4.812c-0.056,0.131-0.133,0.319-0.226,0.547 c-1.099,2.707-1.843,4.215-2.624,4.432c-0.264,0.076-0.53-0.075-0.611-0.332c-0.603-1.93-0.762-4.741-0.903-7.221 c-0.05-0.873-0.096-1.695-0.159-2.405c-0.119-1.343-0.361-2.591-0.597-3.797c-0.251-1.288-0.509-2.616-0.624-4.082 c-0.853-0.026-1.674,0.064-2.539,0.157c-0.809,0.088-1.645,0.178-2.555,0.178c-1.3,0-2.379,0.031-3.611,0.107 c0.057,1.479,0.373,2.85,0.705,4.292c0.083,0.361,0.167,0.727,0.248,1.097c0.237,1.091,0.379,2.21,0.517,3.292 c0.172,1.362,0.351,2.771,0.721,4.082c0.555,1.966,0.906,3.823,1.278,5.789l0.138,0.728c0.14,0.736,0.309,1.666,0.471,2.559 C16.47,35.313,16.682,36.482,16.794,37.026z"/></svg>