<svg xmlns="http://www.w3.org/2000/svg"  viewBox="0 0 512 512" width="240px" height="240px"><path fill="#74CCCF" d="M337.6,106.3c-1.3-15.8-4.3-30.5-14.7-43c-24.1-29.2-70.7-31.8-100.5-10c-17.9,13.1-29.1,32.3-35.2,53.4c-6,20.7-8.4,42.9-4.7,64.2c3.9,0.2,7.8,0.5,11.5-0.4c2.3-33.3,3.7-72.9,28-98.4c13.9-14.6,36.6-24.8,57-23.7c10.8,0.6,21.6,3.8,29.4,11.6c8.2,8.2,12.3,18.7,14.7,29.9c3.9,17.9,3.4,35.8,3.2,54c-0.1,7.1-0.2,14.8,1.7,21.8c0.6,2.3,1.4,5.3,3.2,6.7c-0.1-0.1,0.7,0.3,1,0.3c1.1-0.1,2.2-0.5,3.2-1.1c1.9-1,3.8-0.8,5.2,0.1C339.6,149.9,339.4,128.1,337.6,106.3z"/><path fill="#EF4823" d="M300.3,279.2c-6-5.3-15.5-6.1-22.4-2c-9.2,5.5-11.3,15.6-9.6,25.6c0.9,5.7-7.9,7.3-9.7,2c-2.1-6.3-4.5-12.7-8.2-18.3c-2.8-4.3-7.4-10.2-13.2-10.1c-13.2,0.2-20.7,13.3-17.1,25.4c4.6,16,16.4,31.4,28.6,42.4c5.2,4.7,10,9.7,15.1,14.4c3.8,3.5,8.3,7.8,13.4,9.5c4.7-7.3,7.2-15.8,10.5-23.9c3.9-9.7,10.3-18.4,14.2-28.2C306.2,305.5,310.7,288.2,300.3,279.2z"/><path fill="#C56528" d="M445.1,450.6c-0.1-0.5-0.2-1-0.3-1.5c-0.5-2-1.1-3.9-1.8-5.8c-1.7-4.6-2.7-9.2-3.3-14c-1.9-13.7-2.7-27.6-4.3-41.4c-3.4-29-7.7-58-11.3-87c-3.5-28.2-6.4-56.5-9.7-84.7c-3.1-26.7-5.9-53.5-6.1-80.4c-7.6,0.2-15.2,0.9-22.7,1.2c-5.5,0.2-11.1,0.1-16.6,0.7c-6.6,0.7-13.2,1.4-19.7-0.2c0.1,3.7,0.3,7.3,0.4,11c26.6,3.2,21.2,39.3,1.7,49.6c-12.6,6.7-28.9,3.1-38.8-7c-4.9-5-8.8-11.3-8.4-18.5c0.4-7.8,5.5-13.6,11.8-17.6c0.3-0.2,0.6-0.3,0.8-0.4c-0.4-5.9-0.3-11.7-0.2-16.3c-0.6,0.2-1.2,0.4-1.9,0.4c-36.3,0.1-72.3,5.6-108.6,6c-0.3,2.8-0.5,5.7-0.8,8.5c0.1,0,0.2,0.1,0.3,0.1c27.1,11.7,1.1,45.6-18.7,48.4c-12.5,1.8-28.6-5.5-33.3-17.7c-5.1-13.3,3-29,17.2-31c-0.1-3.6,0-7.2,0.1-10.8c-7.4,1.7-16,0.4-23.1,0.6c-5.8,0.2-11.5,1.3-17.2,1.6c-6.1,0.3-12.1,0.4-18.2,0.4c0,57.3-0.6,114.7-2.9,172c-1.2,29.4-2.7,58.8-4.8,88.1c-0.5,7.3-1.4,14.6-1.2,21.9c0.2,5.6,0.5,11.2,0.6,16.8c0.1,8.6-0.1,17.3-2,25.6c60.5-0.3,120.9-3.4,181.3-7.3c31.7-2,63.4-4,95.2-6.2c22.1-1.5,45-5.3,66.8-0.2C444.4,454,444.5,452.1,445.1,450.6z M313.7,312.8c-2,6.1-4.5,11.9-7.4,17.6c-2.9,5.6-6.7,11.1-9.1,17c-4.4,10.8-7.7,21.9-15.1,31.1c-2.4,3-6.1,1.8-7.8-0.7c-6.9-2.3-12.9-7.7-18.1-12.5c-6.4-6-13.1-11.9-19-18.3c-7.6-8.2-14.8-17.1-20-27.1c-4.1-7.7-8.3-16.1-7.8-25c0.4-7.5,2.6-15.5,8.4-20.8c5.8-5.3,14.2-9,22.3-7.4c9.2,1.8,15.6,8.5,20.2,16.5c2.3-5.9,6.2-11,12.1-14.4c10.2-5.8,23.3-5.9,32.9,1.3C318.2,280.1,318.5,298.6,313.7,312.8z"/><path fill="#010101" d="M453,457.8c-0.2-0.1-0.4-0.1-0.5-0.2c1.8-1.2,2.9-3.5,2.8-5.7c-0.1-3.7-1.4-7.5-2.6-11c-4-12-4.3-24.6-5.5-37.1c-3.1-30.8-7.6-61.3-11.6-92c-3.9-30.2-7-60.5-10.5-90.8c-3.4-29.1-6.7-58.3-6.7-87.6c0-1.8-0.8-3-1.8-3.7c-0.5-2.1-2.3-3.9-5-3.9c-8.4,0.1-16.8,0.8-25.2,1.2c-4.8,0.2-9.6,0.2-14.3,0.4c-7.5,0.4-14.6,2.1-22.1-0.1c-0.3-0.1-0.6-0.1-0.9-0.2c0-0.4,0-0.8,0-1.1c-0.6-13.9-0.9-28.2-4.3-41.7c-4.6-18.6-17.1-34-33.3-43.9c-33.6-20.5-77.9-12.7-105.6,13.9c-15.4,14.7-24.3,35.6-29.7,55.8c-1.8,6.9-3.2,13.9-4.1,21.1c-3.2,2-7.9,1.6-11.5,1.7c-4.9,0.1-9.8-0.2-14.6,0c-5.3,0.2-10.7,1.2-16,1.5c-7.1,0.4-14.2,0.4-21.3,0.4c-0.5,0-1,0.1-1.5,0.2c-2.4,0.3-4.6,2.1-4.6,5.2c0,57.8-0.6,115.7-2.8,173.4c-1.1,29.2-2.6,58.3-4.7,87.4c-0.9,12.5-1.5,24.5-1,37c0.4,9.1,0.8,18.7-1.2,27.8c-1.4,0.9-2.3,2.3-2.3,4.3v4.5c0,2.3,1.7,3.8,3.7,4.3c0.1,0,0.1,0,0.2,0c0.1,0,0.2,0,0.2,0.1c0.4,0.1,0.8,0.1,1.3,0.1c61.5,0,123-3.2,184.4-7c30.4-1.9,60.8-4,91.2-6c12.9-0.8,25.7-2.1,38.6-2.9c10.1-0.6,20.6-0.8,30.7,1.2c-1.8,4.3,2.9,9.9,7,6.3c1.9-1.6,4.1-2.9,6-4.5C456,464.3,457,459.1,453,457.8z M343.4,177.1c3,1.4,7.7-0.3,7.4-4.7c-0.3-4.5-0.5-9.1-0.7-13.6c5.1,1.3,8.2,4.7,8.2,11c0.1,7.2-4.7,14.6-10.3,18.7c-7.6,5.6-17.9,3.4-25.2-1.7c-4-2.7-7.2-6.4-8.5-11.1c-1.2-4,1.1-7.3,3.9-9.8c2.6,12.6,8.7,21.7,22.8,14C342.4,179.2,343.1,178.2,343.4,177.1z M316.9,129.6c-0.8-0.5-1.8-0.9-2.9-0.9c-35.7,0.1-71,5.4-106.7,5.9c3.8-27.4,12.5-54.1,37.9-67.6c18.3-9.8,45-14.6,59.7,3.7c7.2,9,9.2,21.8,10.6,32.8C316.4,112.2,317,121,316.9,129.6z M187.2,106.7c6.2-21.1,17.3-40.3,35.2-53.4c29.7-21.8,76.4-19.2,100.5,10c10.4,12.6,13.3,27.2,14.7,43c1.8,21.8,2,43.6,3.2,65.4c-1.5-0.9-3.4-1.2-5.2-0.1c-1,0.6-2.1,1-3.2,1.1c-0.3,0-1.1-0.4-1-0.3c-1.8-1.4-2.6-4.3-3.2-6.7c-1.9-6.9-1.7-14.6-1.7-21.8c0.2-18.1,0.7-36.1-3.2-54c-2.4-11.2-6.5-21.6-14.7-29.9c-7.8-7.8-18.6-11.1-29.4-11.6c-20.4-1.1-43.1,9.2-57,23.7c-24.3,25.5-25.6,65.1-28,98.4c-3.8,0.9-7.7,0.6-11.5,0.4C178.9,149.5,181.2,127.4,187.2,106.7z M172.8,173.1c0.2,1.3,0.9,2.3,1.7,3.1c0.4,2.3,2.2,4.5,5.1,4.6c7.1,0.1,14.1,1.2,20.8-1.8c1.5-0.7,3.1-2,3.3-3.8c0.3-3.5,0.5-7.2,0.8-10.9c9.5,8.1-8.2,24.2-16.7,27c-7.6,2.4-16.8-1.6-22.2-6.9c-7-6.9-3.1-19.2,5.8-21.3C171.8,166.4,172.2,169.8,172.8,173.1z M378.4,455.7c-31.7,2.2-63.4,4.2-95.2,6.2c-60.4,3.8-120.8,7-181.3,7.3c1.9-8.4,2.2-17,2-25.6c-0.1-5.6-0.4-11.2-0.6-16.8c-0.2-7.3,0.6-14.6,1.2-21.9c2.1-29.3,3.7-58.7,4.8-88.1c2.3-57.3,2.9-114.7,2.9-172c6.1,0,12.2-0.1,18.2-0.4c5.8-0.3,11.5-1.4,17.2-1.6c7.2-0.2,15.7,1.1,23.1-0.6c-0.2,3.6-0.2,7.2-0.1,10.8c-14.1,2-22.3,17.6-17.2,31c4.7,12.2,20.8,19.5,33.3,17.7c19.8-2.8,45.7-36.7,18.7-48.4c-0.1,0-0.2-0.1-0.3-0.1c0.2-2.8,0.5-5.6,0.8-8.5c36.3-0.3,72.3-5.9,108.6-6c0.7,0,1.4-0.1,1.9-0.4c-0.1,4.6-0.2,10.4,0.2,16.3c-0.3,0.1-0.6,0.3-0.8,0.4c-6.3,4-11.4,9.8-11.8,17.6c-0.4,7.2,3.5,13.5,8.4,18.5c9.9,10.1,26.2,13.6,38.8,7c19.5-10.4,24.9-46.4-1.7-49.6c-0.1-3.7-0.3-7.3-0.4-11c6.5,1.6,13,0.9,19.7,0.2c5.5-0.6,11.1-0.5,16.6-0.7c7.6-0.3,15.1-0.9,22.7-1.2c0.2,26.9,3,53.7,6.1,80.4c3.3,28.2,6.2,56.5,9.7,84.7c3.6,29,7.9,57.9,11.3,87c1.6,13.8,2.4,27.6,4.3,41.4c0.7,4.9,1.6,9.5,3.3,14c0.7,1.9,1.3,3.9,1.8,5.8c0.1,0.5,0.2,1,0.3,1.5c-0.7,1.5-0.7,3.4,0.1,5C423.5,450.5,400.5,454.2,378.4,455.7z"/><path fill="#010101" d="M305.2,270.3c-9.6-7.3-22.6-7.1-32.9-1.3c-5.9,3.3-9.8,8.5-12.1,14.4c-4.6-8-11-14.7-20.2-16.5c-8-1.6-16.4,2.1-22.3,7.4c-5.8,5.2-7.9,13.3-8.4,20.8c-0.5,8.9,3.7,17.3,7.8,25c5.3,10,12.4,18.8,20,27.1c5.9,6.4,12.6,12.3,19,18.3c5.2,4.8,11.2,10.2,18.1,12.5c1.7,2.5,5.4,3.7,7.8,0.7c7.4-9.2,10.7-20.3,15.1-31.1c2.4-5.9,6.2-11.3,9.1-17c2.9-5.7,5.4-11.5,7.4-17.6C318.5,298.6,318.2,280.1,305.2,270.3z M301.9,316.2c-4,9.8-10.3,18.4-14.2,28.2c-3.3,8-5.8,16.5-10.5,23.9c-5.1-1.7-9.5-6.1-13.4-9.5c-5.2-4.7-10-9.7-15.1-14.4c-12.2-11-24-26.5-28.6-42.4c-3.5-12.2,3.9-25.3,17.1-25.4c5.8-0.1,10.3,5.9,13.2,10.1c3.7,5.6,6.1,12,8.2,18.3c1.8,5.3,10.6,3.7,9.7-2c-1.7-10.1,0.4-20.1,9.6-25.6c6.9-4.2,16.4-3.3,22.4,2C310.7,288.2,306.2,305.5,301.9,316.2z"/></svg>