<svg xmlns="http://www.w3.org/2000/svg"  viewBox="0 0 512 512" width="240px" height="240px"><path fill="#D6E5E5" d="M202.9,62.5c-26.5,8-52.6,19.5-74.8,36.1c-20,14.9-36.6,34-47.8,56.3c-6,11.9-12,23.9-17.3,36.1c-3.6,8.1-7,16.6-8.9,25.3c8.9-5.4,20.7-7.8,29.7-9.4c14.1-2.6,30.9-4.6,43.8,2c6.7-15.6,11.9-31.9,17.3-48c5.6-16.8,11.3-34,20.4-49.3c13.7-23.1,33.2-40.3,55.8-53.8C214.9,59.2,208.9,60.7,202.9,62.5z"/><path fill="#74CCCF" d="M236.4,147.8c-0.1-28.3-1.6-56.7-1.9-85c-25.1,13.8-47.7,31.8-61.5,57.5c-16.2,30.1-22.7,64.3-36.4,95.5c0.3,0.3,0.6,0.6,0.8,0.9c9.1-0.8,18.1-4.2,27.1-5.8c10.9-2,20.9-0.4,31.5,2.1c14.1,3.3,25.7,11.2,37.8,18.5c0.8-12.7,2.9-25.2,3.1-38C237,178.2,236.4,163,236.4,147.8z"/><path fill="#D6E5E5" d="M383.1,201.9c-1.5-9.9-3.8-19.8-6.8-29.4c-6.3-19.5-15.6-38-28.4-54.1C334.1,101.1,317,88,298.4,76.4c-5.7-3.5-11.5-7-17.5-10c-2.7-1.4-5.4-2.7-8.2-3.9c-1.6-0.7-3.3-1.4-4.9-2c-1.9-0.5-2.2-0.7-0.9-0.7c-5.2-0.3-11.2-0.5-16.2-2c-2.3-0.7-3.6-1.9-4.2-4c-0.4,0-0.7,0.1-1.1,0.1c0,0,0,0,0,0.1c0,31.7,1.9,63.3,2,95c0,15.2,0.7,30.4,0.4,45.6c-0.2,7.2-0.3,14.4-1.1,21.5c-0.6,5.3-1.4,10.6-1.9,15.9c7.8-7.9,15.5-16,25.6-21.2c13-6.7,30.3-8.2,44.7-8.2c17.5,0,33.4,5.1,49.8,10.7c6.8,2.3,13.8,4.5,20.4,7.5C384.4,214.5,384,208.1,383.1,201.9z"/><path fill="#FCBF95" d="M280.1,440.3c-2.4-6.1-6.2-11.8-7.6-18.2c-1.1-5.2-0.7-10.1-1.3-15.2c-0.5-4.3-1.5-6.6-6.2-5.9c-5.8,0.9-10,6.3-9.6,12c0.1,1.6-0.4,2.8-1.2,3.8c-0.7,7.7-3.7,14.3-10.6,18.9c-5.4,3.6-11.5,6.2-17.2,9.4c-2.8,1.6-6,3.3-8.3,5.8c-0.3,0.3-0.9,1-1.2,1.4c0.1,0.1,0.2,0.2,0.3,0.3c2.8,1.8,7.5-0.3,10.4-1.1c3.5-1,7.1-2.3,10.8-2.4c4.4-0.2,6.9,4,5.4,7.9c-2.3,5.8-5.6,11.3-8.2,16.9c-1.9,4.2-5.9,11.1-4.4,16.1c0.3-0.2,0.5-0.3,0.5-0.3c1.9-1.3,3.6-2.9,5.2-4.6c3.1-3.3,5.8-7,8.9-10.2c3.1-3.2,9.6-1.9,9.6,3.2c0,2.5-0.8,14.6,3,15c2.5,0.3,3.5-9.3,3.5-11.4c-0.1-10.2-3.2-22.3,2.1-31.7c0.4-0.8,1-1.4,1.6-1.8c1.1-3.9,6.9-6.2,9.9-1.8c2.6,3.8,3.7,8.5,5.7,12.6c0.6,1.1,1.3,2.5,2.4,3.1C284.7,455.3,282.6,446.5,280.1,440.3z"/><path fill="#74CCCF" d="M434.2,104.8c-19.3-16.4-43.1-27.3-67-34.9c-24.3-7.8-49.5-12.9-74.8-16c-4.9-0.6-9.8-1-14.8-1.2c9.5,4.2,18.5,9.3,27.2,14.9c19.2,12.2,37,25.5,51.2,43.5c13.3,16.7,23.6,36,30.1,56.4c3.2,10.1,5.7,20.4,7.4,30.8c1.5,8.7,1.4,17.9,3.3,26.6c12.3-11.9,31.5-17.9,48-17c10.5,0.5,22.8,3.1,31.6,9.5C481.5,175.6,466.8,132.5,434.2,104.8z"/><path d="M485.8,228.8c9.1-47.1-5.6-96.4-41-129.3c-19-17.7-43.5-29.3-67.8-37.8c-25.7-9-52.5-14.7-79.5-18.2C240.3,36,180,51.8,131.7,82.8c-20.8,13.3-38.5,30.7-52.1,51.3c-7.1,10.8-12.3,22.5-18,34.1c-6.1,12.4-12,24.8-16.2,38c-2.5,8-3.9,16.2-4,24.5c0,0.7,0.1,1.2,0.2,1.8c-0.1,0.3-0.1,0.5-0.2,0.8c-0.5,2.7,0.9,4.7,2.8,5.7c1.8,9.5,5.9,18.5,10.5,27c6.5,12,13,23.9,21,35.1c15.9,22.4,37.6,40,58.1,58c20.9,18.3,42.9,35.7,67.5,48.7c6.2,3.3,12.5,6.5,18.5,10.1c3.5,2.1,7,4.3,10.5,6.6c1.1,0.8,2.3,1.6,3.4,2.4c0.4,0.3,0.8,0.6,1.1,0.9c0,0.1,0.1,0.1,0.1,0.2c-2.2,1.4-4.7,2.6-7.1,3.9c-6.6,3.5-13.4,6.8-18.6,12.3c-6.4,6.8-3.1,14.1,3.8,18.6c4.6,3,10.4,1.5,15.9-0.3c-2.1,4.1-4.2,8.1-5.9,12.4c-3,7.4-5.6,17.1,0.5,23.7c6.7,7.4,15.2,0.6,21.9-6.7c0.8,3.3,2.3,6.3,4.9,8.9c5.6,5.7,14,3.3,18.1-2.7c4.3-6.3,4.6-14,4.2-21.3c-0.2-3.7-0.9-8-0.9-12.1c0.9,1.8,1.9,3.4,3.4,4.9c4.5,4.5,11.9,5.5,16.5,0.6c3.7-4,3.2-10.9,2.7-15.9c-0.7-6.7-1.9-12-4-17.5c-0.7-1.9-1.5-3.6-2.3-5.4c0.3-0.1,0.5-0.2,0.8-0.3c42.7-23.2,79.5-56.9,114-90.7c16.3-16,32-32.8,46.7-50.2c12.9-15.3,24.8-31.8,33-50.1c3.5-0.3,5.2-4.2,4.4-7.3C486.7,231.2,486.3,230,485.8,228.8z M247.4,148.9c-0.1-31.7-2-63.3-2-95c0,0,0,0,0-0.1c0.4,0,0.7-0.1,1.1-0.1c0.6,2.1,1.9,3.3,4.2,4c5,1.6,11,1.7,16.2,2c-1.3,0-1,0.2,0.9,0.7c1.7,0.6,3.3,1.3,4.9,2c2.8,1.2,5.5,2.5,8.2,3.9c6,3,11.8,6.5,17.5,10c18.7,11.6,35.8,24.6,49.5,41.9c12.8,16.1,22.1,34.6,28.4,54.1c3.1,9.6,5.4,19.5,6.8,29.4c0.9,6.3,1.3,12.6,2.1,18.9c-6.6-3-13.6-5.2-20.4-7.5c-16.4-5.6-32.4-10.6-49.8-10.7c-14.5,0-31.7,1.5-44.7,8.2c-10.1,5.1-17.7,13.2-25.6,21.2c0.4-5.3,1.3-10.6,1.9-15.9c0.8-7.1,1-14.4,1.1-21.5C248.1,179.3,247.4,164.1,247.4,148.9z M236.4,147.8c0.1,15.2,0.6,30.5,0.4,45.7c-0.2,12.7-2.3,25.3-3.1,38c-12.1-7.3-23.7-15.2-37.8-18.5c-10.6-2.5-20.6-4.1-31.5-2.1c-9,1.6-18,5-27.1,5.8c-0.3-0.3-0.5-0.6-0.8-0.9c13.7-31.2,20.2-65.4,36.4-95.5c13.9-25.7,36.4-43.6,61.5-57.5C234.8,91.1,236.3,119.4,236.4,147.8z M62.9,191c5.4-12.2,11.3-24.2,17.3-36.1c11.2-22.3,27.8-41.4,47.8-56.3c22.3-16.6,48.4-28.1,74.8-36.1c6-1.8,12-3.4,18.1-4.7c-22.6,13.5-42.2,30.7-55.8,53.8c-9.1,15.3-14.7,32.5-20.4,49.3c-5.4,16.1-10.6,32.4-17.3,48c-12.9-6.5-29.7-4.6-43.8-2c-9,1.6-20.8,4-29.7,9.4C55.9,207.6,59.3,199.2,62.9,191z M213.2,401.3c-9.3-5-18.6-9.8-27.5-15.7c-12.3-8.1-23.9-17.4-35.2-26.9c-10.7-9-21.1-18.4-31.5-27.8c-10.3-9.3-20.3-18.3-28.9-29.2c-8.5-10.8-15.8-22.5-22.2-34.7c-6.2-11.8-12.8-23.5-13.5-36.8c5.6-7.9,20.3-10.5,28.5-12.1c12.7-2.5,28.5-5.9,40.5,0.9c-0.1,2.9,2.4,5.2,5.1,5.6c0.9,16.2,8.5,32,15.2,46.4c9.1,19.8,19.8,39.3,30.9,58.1c5.4,9,11.1,17.8,16.8,26.6c5.7,8.8,10.6,17.9,15.4,27.2c5,9.7,11.4,18,18.8,25.3C221.5,405.9,217.4,403.6,213.2,401.3z M231.9,399.3c-6.9-6.5-11.6-14.1-16-22.4c-4.3-8.2-8.4-16.4-13.4-24.2c-5.7-8.8-11.4-17.5-16.8-26.5c-10.9-17.8-20.8-36.5-29.9-55.3c-6.5-13.4-14.1-28.4-15.9-43.5c3.7-0.5,7.4-1.3,11-2.3c11.2-3,22-5.4,33.6-3.6c18.8,2.8,33.1,13.5,48.9,22.5c-2.7,19.9-3.7,40-2.7,60c0.8,16.5,4.3,32.5,6.2,48.8c1.2,10.5,2.2,20.9,3.6,31.4c0.6,4.9,0.7,16.1,5.1,20.7c-0.6,1.7-1,3.4-1.2,5.2C240.1,406.7,235.9,403.1,231.9,399.3z M283.5,462c-1.1-0.6-1.8-2-2.4-3.1c-2.1-4.1-3.1-8.7-5.7-12.6c-3-4.4-8.8-2.1-9.9,1.8c-0.6,0.4-1.1,1.1-1.6,1.8c-5.2,9.4-2.2,21.5-2.1,31.7c0,2-1,11.6-3.5,11.4c-3.8-0.4-3-12.6-3-15c0-5.1-6.6-6.4-9.6-3.2c-3.1,3.2-5.8,6.9-8.9,10.2c-1.6,1.7-3.3,3.3-5.2,4.6c0,0-0.3,0.1-0.5,0.3c-1.5-4.9,2.5-11.9,4.4-16.1c2.6-5.7,5.9-11.1,8.2-16.9c1.5-3.9-0.9-8.1-5.4-7.9c-3.7,0.2-7.3,1.4-10.8,2.4c-2.9,0.9-7.6,3-10.4,1.1c-0.2-0.1-0.3-0.2-0.3-0.3c0.3-0.4,0.9-1.1,1.2-1.4c2.3-2.4,5.5-4.1,8.3-5.8c5.6-3.3,11.7-5.8,17.2-9.4c6.8-4.5,9.9-11.2,10.6-18.9c0.8-0.9,1.3-2.2,1.2-3.8c-0.4-5.7,3.8-11.2,9.6-12c4.7-0.7,5.8,1.6,6.2,5.9c0.6,5.2,0.2,10.1,1.3,15.2c1.4,6.4,5.1,12.2,7.6,18.2C282.6,446.5,284.7,455.3,283.5,462z M285.5,412c-1.1,0.1-2.2,0.6-3.1,1.3c0-0.4-0.1-0.9,0-1.3c0-6.2-0.3-14.1-5.3-18.6c-5.6-5-14.5-4.6-20.8-1.2c-1.1,0.6-2.2,1.3-3.2,2.1c-0.2-0.9-0.3-1.8-0.5-2.7c-0.8-4.8-1.4-9.7-2-14.5c-1.1-9-1.9-18-3-26.9c-1.9-15.8-5.1-31.1-6-47.1c-1.1-18.7-0.1-37.4,2.4-55.9c0.7-0.3,1.4-0.8,2-1.3c9.1-8.4,16.8-18.2,27.6-24.6c5.9-3.5,12.9-4.7,19.6-5.8c7.5-1.3,15.1-1.9,22.7-2c15.2-0.2,29.8,4.6,44.1,9.6c10.4,3.6,21.8,6.5,30.4,13.6c-2.1,6-3.8,12.2-5.6,18.3c-2.7,9.1-6.7,17.6-10.9,26.1c-8.1,16.4-16.6,32.7-25.9,48.5c-9.4,15.9-20.3,30.9-31.7,45.5C306.3,387.7,296.9,400.7,285.5,412z M440.2,284c-14.3,17-29.7,33.3-45.6,48.9c-28.4,28-58.7,55.7-92.5,77.4c7.8-9,14.9-18.6,22.2-27.9c11.6-14.8,22.6-30.1,32.3-46.2c9.4-15.6,17.8-32.1,26-48.4c4.1-8.2,8.2-16.5,11.1-25.2c3-9.2,5.1-18.8,9-27.7c0-0.1,0.1-0.2,0.1-0.3c10.1-10.9,26.1-15.7,40.6-15.8c9.2,0,21.4,2.3,28.4,9.2c-0.7,2-0.2,4.5,1.3,6.2C465.1,252.4,453.2,268.6,440.2,284z M476.5,217.3c-8.8-6.5-21.1-9-31.6-9.5c-16.5-0.8-35.7,5.1-48,17c-1.8-8.7-1.8-17.8-3.3-26.6c-1.7-10.4-4.2-20.8-7.4-30.8c-6.6-20.4-16.8-39.6-30.1-56.4c-14.3-18-32-31.3-51.2-43.5c-8.7-5.5-17.8-10.7-27.2-14.9c4.9,0.2,9.9,0.6,14.8,1.2c25.3,3.1,50.5,8.2,74.8,16c23.9,7.6,47.8,18.5,67,34.9C466.8,132.5,481.5,175.6,476.5,217.3z"/></svg>