<?xml version="1.0" encoding="UTF-8"?>
<svg xmlns="http://www.w3.org/2000/svg" xmlns:xlink="http://www.w3.org/1999/xlink" viewBox="0 0 400 400" width="400px" height="400px">
<g id="surface108402019">
<path style=" stroke:none;fill-rule:nonzero;fill:rgb(90.196079%,49.411765%,13.333334%);fill-opacity:1;" d="M 108 76 C 81.539062 76 60 97.539062 60 124 L 60 276 C 60 302.460938 81.539062 324 108 324 L 292 324 C 318.460938 324 340 302.460938 340 276 L 340 134.320312 C 340.035156 134.105469 340.035156 133.886719 340 133.671875 L 340 124 C 340 97.539062 318.460938 76 292 76 Z M 108 84 L 292 84 C 314.136719 84 332 101.863281 332 124 L 332 132 L 298 132 C 297.277344 131.988281 296.609375 132.367188 296.246094 132.992188 C 295.878906 133.613281 295.878906 134.386719 296.246094 135.007812 C 296.609375 135.632812 297.277344 136.011719 298 136 L 332 136 L 332 276 C 332 277.351562 331.933594 278.683594 331.804688 280 L 298 280 C 297.277344 279.988281 296.609375 280.367188 296.246094 280.992188 C 295.878906 281.613281 295.878906 282.386719 296.246094 283.007812 C 296.609375 283.632812 297.277344 284.011719 298 284 L 331.203125 284 C 327.511719 302.289062 311.398438 316 292 316 L 108 316 C 88.601562 316 72.488281 302.289062 68.796875 284 L 286 284 C 286.722656 284.011719 287.390625 283.632812 287.753906 283.007812 C 288.121094 282.386719 288.121094 281.613281 287.753906 280.992188 C 287.390625 280.367188 286.722656 279.988281 286 280 L 68.195312 280 C 68.066406 278.683594 68 277.351562 68 276 L 68 136 L 250 136 C 250.722656 136.011719 251.390625 135.632812 251.753906 135.007812 C 252.121094 134.386719 252.121094 133.613281 251.753906 132.992188 C 251.390625 132.367188 250.722656 131.988281 250 132 L 68 132 L 68 124 C 68 101.863281 85.863281 84 108 84 Z M 102 100 C 96.5 100 92 104.5 92 110 C 92 115.5 96.5 120 102 120 C 107.5 120 112 115.5 112 110 C 112 104.5 107.5 100 102 100 Z M 134 100 C 128.5 100 124 104.5 124 110 C 124 115.5 128.5 120 134 120 C 139.5 120 144 115.5 144 110 C 144 104.5 139.5 100 134 100 Z M 166 100 C 160.5 100 156 104.5 156 110 C 156 115.5 160.5 120 166 120 C 171.5 120 176 115.5 176 110 C 176 104.5 171.5 100 166 100 Z M 102 104 C 105.335938 104 108 106.664062 108 110 C 108 113.335938 105.335938 116 102 116 C 98.664062 116 96 113.335938 96 110 C 96 106.664062 98.664062 104 102 104 Z M 134 104 C 137.335938 104 140 106.664062 140 110 C 140 113.335938 137.335938 116 134 116 C 130.664062 116 128 113.335938 128 110 C 128 106.664062 130.664062 104 134 104 Z M 166 104 C 169.335938 104 172 106.664062 172 110 C 172 113.335938 169.335938 116 166 116 C 162.664062 116 160 113.335938 160 110 C 160 106.664062 162.664062 104 166 104 Z M 262 132 C 261.277344 131.988281 260.609375 132.367188 260.246094 132.992188 C 259.878906 133.613281 259.878906 134.386719 260.246094 135.007812 C 260.609375 135.632812 261.277344 136.011719 262 136 L 286 136 C 286.722656 136.011719 287.390625 135.632812 287.753906 135.007812 C 288.121094 134.386719 288.121094 133.613281 287.753906 132.992188 C 287.390625 132.367188 286.722656 131.988281 286 132 Z M 94 164 C 93.277344 163.988281 92.609375 164.367188 92.246094 164.992188 C 91.878906 165.613281 91.878906 166.386719 92.246094 167.007812 C 92.609375 167.632812 93.277344 168.011719 94 168 L 118 168 C 118.722656 168.011719 119.390625 167.632812 119.753906 167.007812 C 120.121094 166.386719 120.121094 165.613281 119.753906 164.992188 C 119.390625 164.367188 118.722656 163.988281 118 164 Z M 138 164 C 137.277344 163.988281 136.609375 164.367188 136.246094 164.992188 C 135.878906 165.613281 135.878906 166.386719 136.246094 167.007812 C 136.609375 167.632812 137.277344 168.011719 138 168 L 214 168 C 214.722656 168.011719 215.390625 167.632812 215.753906 167.007812 C 216.121094 166.386719 216.121094 165.613281 215.753906 164.992188 C 215.390625 164.367188 214.722656 163.988281 214 164 Z M 238 164 C 237.277344 163.988281 236.609375 164.367188 236.246094 164.992188 C 235.878906 165.613281 235.878906 166.386719 236.246094 167.007812 C 236.609375 167.632812 237.277344 168.011719 238 168 L 250 168 C 250.722656 168.011719 251.390625 167.632812 251.753906 167.007812 C 252.121094 166.386719 252.121094 165.613281 251.753906 164.992188 C 251.390625 164.367188 250.722656 163.988281 250 164 Z M 266 164 C 265.277344 163.988281 264.609375 164.367188 264.246094 164.992188 C 263.878906 165.613281 263.878906 166.386719 264.246094 167.007812 C 264.609375 167.632812 265.277344 168.011719 266 168 L 278 168 C 278.722656 168.011719 279.390625 167.632812 279.753906 167.007812 C 280.121094 166.386719 280.121094 165.613281 279.753906 164.992188 C 279.390625 164.367188 278.722656 163.988281 278 164 Z M 294 164 C 293.277344 163.988281 292.609375 164.367188 292.246094 164.992188 C 291.878906 165.613281 291.878906 166.386719 292.246094 167.007812 C 292.609375 167.632812 293.277344 168.011719 294 168 L 306 168 C 306.722656 168.011719 307.390625 167.632812 307.753906 167.007812 C 308.121094 166.386719 308.121094 165.613281 307.753906 164.992188 C 307.390625 164.367188 306.722656 163.988281 306 164 Z M 94 192 C 93.277344 191.988281 92.609375 192.367188 92.246094 192.992188 C 91.878906 193.613281 91.878906 194.386719 92.246094 195.007812 C 92.609375 195.632812 93.277344 196.011719 94 196 L 118 196 C 118.722656 196.011719 119.390625 195.632812 119.753906 195.007812 C 120.121094 194.386719 120.121094 193.613281 119.753906 192.992188 C 119.390625 192.367188 118.722656 191.988281 118 192 Z M 138 192 C 137.277344 191.988281 136.609375 192.367188 136.246094 192.992188 C 135.878906 193.613281 135.878906 194.386719 136.246094 195.007812 C 136.609375 195.632812 137.277344 196.011719 138 196 L 214 196 C 214.722656 196.011719 215.390625 195.632812 215.753906 195.007812 C 216.121094 194.386719 216.121094 193.613281 215.753906 192.992188 C 215.390625 192.367188 214.722656 191.988281 214 192 Z M 266 192 C 265.277344 191.988281 264.609375 192.367188 264.246094 192.992188 C 263.878906 193.613281 263.878906 194.386719 264.246094 195.007812 C 264.609375 195.632812 265.277344 196.011719 266 196 L 278 196 C 278.722656 196.011719 279.390625 195.632812 279.753906 195.007812 C 280.121094 194.386719 280.121094 193.613281 279.753906 192.992188 C 279.390625 192.367188 278.722656 191.988281 278 192 Z M 294 192 C 293.277344 191.988281 292.609375 192.367188 292.246094 192.992188 C 291.878906 193.613281 291.878906 194.386719 292.246094 195.007812 C 292.609375 195.632812 293.277344 196.011719 294 196 L 306 196 C 306.722656 196.011719 307.390625 195.632812 307.753906 195.007812 C 308.121094 194.386719 308.121094 193.613281 307.753906 192.992188 C 307.390625 192.367188 306.722656 191.988281 306 192 Z M 94 220 C 93.277344 219.988281 92.609375 220.367188 92.246094 220.992188 C 91.878906 221.613281 91.878906 222.386719 92.246094 223.007812 C 92.609375 223.632812 93.277344 224.011719 94 224 L 118 224 C 118.722656 224.011719 119.390625 223.632812 119.753906 223.007812 C 120.121094 222.386719 120.121094 221.613281 119.753906 220.992188 C 119.390625 220.367188 118.722656 219.988281 118 220 Z M 138 220 C 137.277344 219.988281 136.609375 220.367188 136.246094 220.992188 C 135.878906 221.613281 135.878906 222.386719 136.246094 223.007812 C 136.609375 223.632812 137.277344 224.011719 138 224 L 214 224 C 214.722656 224.011719 215.390625 223.632812 215.753906 223.007812 C 216.121094 222.386719 216.121094 221.613281 215.753906 220.992188 C 215.390625 220.367188 214.722656 219.988281 214 220 Z M 238 220 C 237.277344 219.988281 236.609375 220.367188 236.246094 220.992188 C 235.878906 221.613281 235.878906 222.386719 236.246094 223.007812 C 236.609375 223.632812 237.277344 224.011719 238 224 L 250 224 C 250.722656 224.011719 251.390625 223.632812 251.753906 223.007812 C 252.121094 222.386719 252.121094 221.613281 251.753906 220.992188 C 251.390625 220.367188 250.722656 219.988281 250 220 Z M 266 220 C 265.277344 219.988281 264.609375 220.367188 264.246094 220.992188 C 263.878906 221.613281 263.878906 222.386719 264.246094 223.007812 C 264.609375 223.632812 265.277344 224.011719 266 224 L 278 224 C 278.722656 224.011719 279.390625 223.632812 279.753906 223.007812 C 280.121094 222.386719 280.121094 221.613281 279.753906 220.992188 C 279.390625 220.367188 278.722656 219.988281 278 220 Z M 294 220 C 293.277344 219.988281 292.609375 220.367188 292.246094 220.992188 C 291.878906 221.613281 291.878906 222.386719 292.246094 223.007812 C 292.609375 223.632812 293.277344 224.011719 294 224 L 306 224 C 306.722656 224.011719 307.390625 223.632812 307.753906 223.007812 C 308.121094 222.386719 308.121094 221.613281 307.753906 220.992188 C 307.390625 220.367188 306.722656 219.988281 306 220 Z M 94 248 C 93.277344 247.988281 92.609375 248.367188 92.246094 248.992188 C 91.878906 249.613281 91.878906 250.386719 92.246094 251.007812 C 92.609375 251.632812 93.277344 252.011719 94 252 L 118 252 C 118.722656 252.011719 119.390625 251.632812 119.753906 251.007812 C 120.121094 250.386719 120.121094 249.613281 119.753906 248.992188 C 119.390625 248.367188 118.722656 247.988281 118 248 Z M 138 248 C 137.277344 247.988281 136.609375 248.367188 136.246094 248.992188 C 135.878906 249.613281 135.878906 250.386719 136.246094 251.007812 C 136.609375 251.632812 137.277344 252.011719 138 252 L 214 252 C 214.722656 252.011719 215.390625 251.632812 215.753906 251.007812 C 216.121094 250.386719 216.121094 249.613281 215.753906 248.992188 C 215.390625 248.367188 214.722656 247.988281 214 248 Z M 238 248 C 237.277344 247.988281 236.609375 248.367188 236.246094 248.992188 C 235.878906 249.613281 235.878906 250.386719 236.246094 251.007812 C 236.609375 251.632812 237.277344 252.011719 238 252 L 250 252 C 250.722656 252.011719 251.390625 251.632812 251.753906 251.007812 C 252.121094 250.386719 252.121094 249.613281 251.753906 248.992188 C 251.390625 248.367188 250.722656 247.988281 250 248 Z M 266 248 C 265.277344 247.988281 264.609375 248.367188 264.246094 248.992188 C 263.878906 249.613281 263.878906 250.386719 264.246094 251.007812 C 264.609375 251.632812 265.277344 252.011719 266 252 L 278 252 C 278.722656 252.011719 279.390625 251.632812 279.753906 251.007812 C 280.121094 250.386719 280.121094 249.613281 279.753906 248.992188 C 279.390625 248.367188 278.722656 247.988281 278 248 Z M 294 248 C 293.277344 247.988281 292.609375 248.367188 292.246094 248.992188 C 291.878906 249.613281 291.878906 250.386719 292.246094 251.007812 C 292.609375 251.632812 293.277344 252.011719 294 252 L 306 252 C 306.722656 252.011719 307.390625 251.632812 307.753906 251.007812 C 308.121094 250.386719 308.121094 249.613281 307.753906 248.992188 C 307.390625 248.367188 306.722656 247.988281 306 248 Z M 294 248 "/>
</g>
</svg>
