<?xml version="1.0" encoding="UTF-8"?>
<svg xmlns="http://www.w3.org/2000/svg" xmlns:xlink="http://www.w3.org/1999/xlink" viewBox="0 0 400 400" width="400px" height="400px">
<g id="surface111709322">
<path style=" stroke:none;fill-rule:nonzero;fill:rgb(100%,15.686275%,43.921569%);fill-opacity:1;" d="M 110.867188 76 C 96.054688 76 84 88.054688 84 102.867188 L 84 281.132812 C 84 295.949219 96.054688 308 110.867188 308 L 176 308 C 178.207031 308 180 306.207031 180 304 C 180 301.792969 178.207031 300 176 300 L 110.867188 300 C 100.46875 300 92 291.53125 92 281.132812 L 92 280 L 118 280 C 119.105469 280 120 279.105469 120 278 C 120 276.894531 119.105469 276 118 276 L 92 276 L 92 116 L 234 116 C 235.105469 116 236 115.105469 236 114 C 236 112.894531 235.105469 112 234 112 L 92 112 L 92 102.867188 C 92 92.46875 100.46875 84 110.867188 84 L 289.132812 84 C 299.535156 84 308 92.46875 308 102.867188 L 308 112 L 282 112 C 280.894531 112 280 112.894531 280 114 C 280 115.105469 280.894531 116 282 116 L 308 116 L 308 276 L 274 276 C 272.894531 276 272 276.894531 272 278 C 272 279.105469 272.894531 280 274 280 L 308 280 L 308 281.132812 C 308 291.53125 299.53125 300 289.132812 300 L 276 300 C 273.792969 300 272 301.792969 272 304 C 272 306.207031 273.792969 308 276 308 L 289.132812 308 C 303.945312 308 316 295.945312 316 281.132812 L 316 102.867188 C 316 88.054688 303.945312 76 289.132812 76 Z M 116 88 C 111.589844 88 108 91.589844 108 96 C 108 100.410156 111.589844 104 116 104 C 120.410156 104 124 100.410156 124 96 C 124 91.589844 120.410156 88 116 88 Z M 140 88 C 135.589844 88 132 91.589844 132 96 C 132 100.410156 135.589844 104 140 104 C 144.410156 104 148 100.410156 148 96 C 148 91.589844 144.410156 88 140 88 Z M 164 88 C 159.589844 88 156 91.589844 156 96 C 156 100.410156 159.589844 104 164 104 C 168.410156 104 172 100.410156 172 96 C 172 91.589844 168.410156 88 164 88 Z M 116 92 C 118.203125 92 120 93.796875 120 96 C 120 98.203125 118.203125 100 116 100 C 113.796875 100 112 98.203125 112 96 C 112 93.796875 113.796875 92 116 92 Z M 140 92 C 142.203125 92 144 93.796875 144 96 C 144 98.203125 142.203125 100 140 100 C 137.796875 100 136 98.203125 136 96 C 136 93.796875 137.796875 92 140 92 Z M 164 92 C 166.203125 92 168 93.796875 168 96 C 168 98.203125 166.203125 100 164 100 C 161.796875 100 160 98.203125 160 96 C 160 93.796875 161.796875 92 164 92 Z M 246 112 C 244.894531 112 244 112.894531 244 114 C 244 115.105469 244.894531 116 246 116 L 262 116 C 263.105469 116 264 115.105469 264 114 C 264 112.894531 263.105469 112 262 112 Z M 106 136 C 104.894531 136 104 136.894531 104 138 L 104 210 C 104 211.105469 104.894531 212 106 212 L 170 212 C 171.105469 212 172 211.105469 172 210 C 172 208.894531 171.105469 208 170 208 L 108 208 L 108 140 L 292 140 L 292 208 L 266 208 C 264.894531 208 264 208.894531 264 210 C 264 211.105469 264.894531 212 266 212 L 294 212 C 295.105469 212 296 211.105469 296 210 L 296 138 C 296 136.894531 295.105469 136 294 136 Z M 195.53125 164.046875 C 195.148438 164.089844 194.769531 164.195312 194.40625 164.351562 C 192.945312 164.988281 192 166.421875 192 168.015625 L 192 294.226562 C 192 295.828125 192.949219 297.273438 194.421875 297.90625 C 195.890625 298.539062 197.597656 298.230469 198.757812 297.125 L 225.960938 271.25 L 248.171875 322.59375 C 248.597656 323.578125 249.398438 324.347656 250.398438 324.734375 C 250.863281 324.910156 251.355469 325.007812 251.84375 325.007812 C 252.40625 325.007812 252.96875 324.878906 253.492188 324.640625 L 270.320312 316.992188 C 272.328125 316.082031 273.21875 313.722656 272.3125 311.710938 L 249.398438 261.015625 L 288.132812 257.671875 C 289.707031 257.535156 291.054688 256.488281 291.570312 254.992188 C 292.085938 253.5 291.679688 251.839844 290.523438 250.765625 L 198.726562 165.09375 C 197.855469 164.277344 196.679688 163.914062 195.53125 164.046875 Z M 200 180.609375 L 211.671875 206.796875 C 212.003906 207.539062 212.734375 207.984375 213.5 207.984375 C 213.773438 207.984375 214.046875 207.929688 214.3125 207.8125 C 215.320312 207.363281 215.773438 206.179688 215.320312 205.171875 L 204.914062 181.804688 L 278.484375 250.476562 L 243.078125 253.53125 C 241.785156 253.644531 240.625 254.371094 239.96875 255.492188 C 239.3125 256.613281 239.246094 257.980469 239.78125 259.164062 L 263.375 311.367188 L 253.898438 315.671875 L 231.039062 262.804688 C 230.519531 261.605469 229.445312 260.738281 228.164062 260.476562 C 227.898438 260.425781 227.636719 260.398438 227.367188 260.398438 C 226.351562 260.398438 225.363281 260.78125 224.609375 261.492188 L 200 284.898438 Z M 215.78125 210.8125 C 215.523438 210.8125 215.261719 210.867188 215.007812 210.976562 C 213.992188 211.414062 213.515625 212.585938 213.953125 213.601562 L 214.734375 215.429688 C 215.0625 216.1875 215.792969 216.640625 216.570312 216.640625 C 216.835938 216.640625 217.097656 216.585938 217.359375 216.476562 C 218.375 216.039062 218.851562 214.867188 218.414062 213.851562 L 217.632812 212.03125 C 217.304688 211.269531 216.558594 210.808594 215.78125 210.8125 Z M 126 276 C 124.894531 276 124 276.894531 124 278 C 124 279.105469 124.894531 280 126 280 L 178 280 C 179.105469 280 180 279.105469 180 278 C 180 276.894531 179.105469 276 178 276 Z M 126 276 "/>
</g>
</svg>
