<?xml version="1.0" encoding="UTF-8"?>
<svg xmlns="http://www.w3.org/2000/svg" xmlns:xlink="http://www.w3.org/1999/xlink" viewBox="0 0 400 400" width="400px" height="400px">
<g id="surface111768861">
<path style=" stroke:none;fill-rule:nonzero;fill:rgb(90.196079%,49.411765%,13.333334%);fill-opacity:1;" d="M 96 60 C 78.375 60 64 74.375 64 92 L 64 108 C 64.003906 108.347656 64.050781 108.691406 64.140625 109.023438 L 64.085938 109.015625 L 52.070312 173.265625 L 52 174 C 52 184.046875 58.78125 192.535156 68 195.15625 L 68 308 C 68 325.625 82.375 340 100 340 L 304 340 C 321.625 340 336 325.625 336 308 L 336 195.054688 C 339.542969 194.074219 342.800781 192.253906 345.46875 189.578125 C 349.675781 185.355469 351.980469 179.679688 351.960938 173.617188 L 339.898438 108.898438 L 339.890625 108.898438 C 339.960938 108.605469 339.996094 108.300781 340 108 L 340 92 C 340 74.375 325.625 60 308 60 Z M 96 68 L 308 68 C 321.300781 68 332 78.699219 332 92 L 332 104 L 72 104 L 72 92 C 72 78.699219 82.699219 68 96 68 Z M 102 76 C 98.832031 76 96.207031 77.257812 94.507812 79.171875 C 92.808594 81.085938 92 83.554688 92 86 C 92 88.445312 92.808594 90.914062 94.507812 92.828125 C 96.207031 94.742188 98.832031 96 102 96 C 105.167969 96 107.792969 94.742188 109.492188 92.828125 C 111.191406 90.914062 112 88.445312 112 86 C 112 83.554688 111.191406 81.085938 109.492188 79.171875 C 107.792969 77.257812 105.167969 76 102 76 Z M 130 76 C 126.832031 76 124.207031 77.257812 122.507812 79.171875 C 120.808594 81.085938 120 83.554688 120 86 C 120 88.445312 120.808594 90.914062 122.507812 92.828125 C 124.207031 94.742188 126.832031 96 130 96 C 133.167969 96 135.792969 94.742188 137.492188 92.828125 C 139.191406 90.914062 140 88.445312 140 86 C 140 83.554688 139.191406 81.085938 137.492188 79.171875 C 135.792969 77.257812 133.167969 76 130 76 Z M 158 76 C 154.832031 76 152.207031 77.257812 150.507812 79.171875 C 148.808594 81.085938 148 83.554688 148 86 C 148 88.445312 148.808594 90.914062 150.507812 92.828125 C 152.207031 94.742188 154.832031 96 158 96 C 161.167969 96 163.792969 94.742188 165.492188 92.828125 C 167.191406 90.914062 168 88.445312 168 86 C 168 83.554688 167.191406 81.085938 165.492188 79.171875 C 163.792969 77.257812 161.167969 76 158 76 Z M 102 80 C 104.167969 80 105.542969 80.742188 106.507812 81.828125 C 107.472656 82.914062 108 84.445312 108 86 C 108 87.554688 107.472656 89.085938 106.507812 90.171875 C 105.542969 91.257812 104.167969 92 102 92 C 99.832031 92 98.457031 91.257812 97.492188 90.171875 C 96.527344 89.085938 96 87.554688 96 86 C 96 84.445312 96.527344 82.914062 97.492188 81.828125 C 98.457031 80.742188 99.832031 80 102 80 Z M 130 80 C 132.167969 80 133.542969 80.742188 134.507812 81.828125 C 135.472656 82.914062 136 84.445312 136 86 C 136 87.554688 135.472656 89.085938 134.507812 90.171875 C 133.542969 91.257812 132.167969 92 130 92 C 127.832031 92 126.457031 91.257812 125.492188 90.171875 C 124.527344 89.085938 124 87.554688 124 86 C 124 84.445312 124.527344 82.914062 125.492188 81.828125 C 126.457031 80.742188 127.832031 80 130 80 Z M 158 80 C 160.167969 80 161.542969 80.742188 162.507812 81.828125 C 163.472656 82.914062 164 84.445312 164 86 C 164 87.554688 163.472656 89.085938 162.507812 90.171875 C 161.542969 91.257812 160.167969 92 158 92 C 155.832031 92 154.457031 91.257812 153.492188 90.171875 C 152.527344 89.085938 152 87.554688 152 86 C 152 84.445312 152.527344 82.914062 153.492188 81.828125 C 154.457031 80.742188 155.832031 80 158 80 Z M 71.664062 112 L 88 112 L 88 172 L 60.445312 172 Z M 92 112 L 120 112 L 120 172 L 92 172 Z M 124 112 L 152 112 L 152 172 L 124 172 Z M 156 112 L 184 112 L 184 172 L 156 172 Z M 188 112 L 216 112 L 216 172 L 188 172 Z M 220 112 L 248 112 L 248 172 L 220 172 Z M 252 112 L 280 112 L 280 172 L 252 172 Z M 284 112 L 312 112 L 312 172 L 284 172 Z M 316 112 L 332.335938 112 L 343.585938 172 L 316 172 Z M 60.21875 176 L 87.804688 176 C 86.832031 182.792969 81.070312 188 74 188 C 73.3125 188 72.660156 187.890625 72 187.796875 C 71.171875 187.675781 70.367188 187.484375 69.59375 187.226562 C 69.589844 187.226562 69.582031 187.226562 69.578125 187.226562 L 69.570312 187.21875 C 68.054688 186.710938 66.652344 185.949219 65.414062 184.992188 C 65.332031 184.929688 65.257812 184.863281 65.179688 184.796875 C 64.644531 184.363281 64.144531 183.894531 63.679688 183.390625 C 63.546875 183.242188 63.425781 183.082031 63.296875 182.929688 C 62.921875 182.484375 62.558594 182.027344 62.242188 181.539062 C 61.992188 181.144531 61.78125 180.722656 61.570312 180.304688 C 61.410156 179.996094 61.230469 179.699219 61.09375 179.375 C 60.652344 178.3125 60.386719 177.175781 60.21875 176 Z M 92.195312 176 L 119.804688 176 C 118.832031 182.792969 113.070312 188 106 188 C 98.929688 188 93.167969 182.792969 92.195312 176 Z M 124.195312 176 L 151.804688 176 C 150.832031 182.792969 145.070312 188 138 188 C 130.929688 188 125.167969 182.792969 124.195312 176 Z M 156.195312 176 L 183.804688 176 C 182.832031 182.792969 177.070312 188 170 188 C 162.929688 188 157.167969 182.792969 156.195312 176 Z M 188.195312 176 L 215.804688 176 C 214.832031 182.792969 209.070312 188 202 188 C 194.929688 188 189.167969 182.792969 188.195312 176 Z M 220.195312 176 L 247.804688 176 C 246.832031 182.792969 241.070312 188 234 188 C 226.929688 188 221.167969 182.792969 220.195312 176 Z M 252.195312 176 L 279.804688 176 C 278.832031 182.792969 273.070312 188 266 188 C 258.929688 188 253.167969 182.792969 252.195312 176 Z M 284.195312 176 L 311.804688 176 C 310.832031 182.792969 305.070312 188 298 188 C 290.929688 188 285.167969 182.792969 284.195312 176 Z M 316.195312 176 L 343.734375 176 C 343.269531 179.011719 341.949219 181.777344 339.804688 183.929688 C 338.777344 184.960938 337.605469 185.78125 336.34375 186.421875 C 336.277344 186.457031 336.214844 186.5 336.148438 186.53125 C 335.554688 186.820312 334.933594 187.054688 334.304688 187.257812 C 334.199219 187.292969 334.097656 187.328125 333.992188 187.359375 C 333.339844 187.550781 332.671875 187.707031 331.992188 187.804688 C 331.335938 187.898438 330.683594 188 330 188 C 322.929688 188 317.167969 182.792969 316.195312 176 Z M 122 181.867188 C 124.945312 187.808594 130.9375 192 138 192 C 145.0625 192 151.054688 187.808594 154 181.867188 C 156.945312 187.808594 162.9375 192 170 192 C 177.0625 192 183.054688 187.808594 186 181.867188 C 188.945312 187.808594 194.9375 192 202 192 C 209.0625 192 215.054688 187.808594 218 181.867188 C 220.945312 187.808594 226.9375 192 234 192 C 236.121094 192 238.125 191.582031 240 190.890625 L 240 320 L 102 320 C 94.246094 320 88 313.753906 88 306 L 88 246 C 88.011719 245.277344 87.632812 244.609375 87.007812 244.246094 C 86.386719 243.878906 85.613281 243.878906 84.992188 244.246094 C 84.367188 244.609375 83.988281 245.277344 84 246 L 84 306 C 84 315.917969 92.082031 324 102 324 L 242 324 C 243.105469 324 244 323.105469 244 322 L 244 188.820312 C 246.53125 187.054688 248.613281 184.664062 250 181.867188 C 250.554688 182.984375 251.246094 184.007812 252 184.984375 L 252 206 C 251.988281 206.722656 252.367188 207.390625 252.992188 207.753906 C 253.613281 208.121094 254.386719 208.121094 255.007812 207.753906 C 255.632812 207.390625 256.011719 206.722656 256 206 L 256 188.820312 C 258.84375 190.804688 262.265625 192 266 192 C 273.0625 192 279.054688 187.808594 282 181.867188 C 284.945312 187.808594 290.9375 192 298 192 C 305 192 311.027344 187.9375 314 182.078125 C 314.589844 183.238281 315.300781 184.304688 316.117188 185.304688 C 316.039062 185.527344 315.996094 185.761719 316 186 L 316 306 C 316 313.753906 309.753906 320 302 320 L 256 320 L 256 234 C 256.011719 233.277344 255.632812 232.609375 255.007812 232.246094 C 254.386719 231.878906 253.613281 231.878906 252.992188 232.246094 C 252.367188 232.609375 251.988281 233.277344 252 234 L 252 322 C 252 323.105469 252.894531 324 254 324 L 302 324 C 311.917969 324 320 315.917969 320 306 L 320 188.953125 C 322.332031 190.519531 325.074219 191.464844 328 191.796875 L 328 308 C 328 321.300781 317.300781 332 304 332 L 100 332 C 86.699219 332 76 321.300781 76 308 L 76 191.796875 C 82.132812 191.105469 87.316406 187.363281 90 182.078125 C 92.972656 187.9375 99 192 106 192 C 113.0625 192 119.054688 187.808594 122 181.867188 Z M 85.96875 195.96875 C 85.4375 195.976562 84.933594 196.195312 84.5625 196.578125 C 84.195312 196.957031 83.992188 197.46875 84 198 L 84 202 C 83.988281 202.722656 84.367188 203.390625 84.992188 203.753906 C 85.613281 204.121094 86.386719 204.121094 87.007812 203.753906 C 87.632812 203.390625 88.011719 202.722656 88 202 L 88 198 C 88.007812 197.457031 87.796875 196.9375 87.414062 196.554688 C 87.03125 196.171875 86.511719 195.960938 85.96875 195.96875 Z M 85.96875 211.96875 C 85.4375 211.976562 84.933594 212.195312 84.5625 212.578125 C 84.195312 212.957031 83.992188 213.46875 84 214 L 84 234 C 83.988281 234.722656 84.367188 235.390625 84.992188 235.753906 C 85.613281 236.121094 86.386719 236.121094 87.007812 235.753906 C 87.632812 235.390625 88.011719 234.722656 88 234 L 88 214 C 88.007812 213.457031 87.796875 212.9375 87.414062 212.554688 C 87.03125 212.171875 86.511719 211.960938 85.96875 211.96875 Z M 253.96875 211.96875 C 253.4375 211.976562 252.933594 212.195312 252.5625 212.578125 C 252.195312 212.957031 251.992188 213.46875 252 214 L 252 222 C 251.988281 222.722656 252.367188 223.390625 252.992188 223.753906 C 253.613281 224.121094 254.386719 224.121094 255.007812 223.753906 C 255.632812 223.390625 256.011719 222.722656 256 222 L 256 214 C 256.007812 213.457031 255.796875 212.9375 255.414062 212.554688 C 255.03125 212.171875 254.511719 211.960938 253.96875 211.96875 Z M 164 220 C 162.757812 220 161.585938 220.578125 160.832031 221.558594 C 160.074219 222.542969 159.816406 223.824219 160.132812 225.023438 L 145.765625 239.289062 L 126.007812 242.390625 C 124.925781 242.5625 124.183594 243.574219 124.34375 244.65625 L 127.210938 264.289062 C 127.289062 264.816406 127.574219 265.292969 128.003906 265.609375 C 128.433594 265.925781 128.972656 266.058594 129.5 265.976562 L 208.3125 253.609375 C 209.394531 253.4375 210.136719 252.425781 209.976562 251.34375 L 207.109375 231.710938 C 206.96875 230.746094 206.152344 230.023438 205.179688 230 C 205.058594 229.996094 204.9375 230.003906 204.820312 230.023438 L 186.46875 232.90625 L 167.992188 223.75 C 167.859375 221.640625 166.113281 220 164 220 Z M 166.210938 227.328125 L 179.632812 233.976562 L 152.515625 238.234375 L 162.953125 227.859375 C 163.292969 227.953125 163.644531 228 164 228 C 164.785156 228 165.554688 227.765625 166.210938 227.328125 Z M 203.4375 234.289062 L 205.734375 249.96875 L 130.882812 261.710938 L 128.585938 246.03125 Z M 304 240 C 301.5 240 299.375 241.007812 298.007812 242.546875 C 296.640625 244.085938 296 246.054688 296 248 C 296 249.945312 296.640625 251.914062 298.007812 253.453125 C 299.375 254.992188 301.5 256 304 256 C 306.5 256 308.625 254.992188 309.992188 253.453125 C 311.359375 251.914062 312 249.945312 312 248 C 312 246.054688 311.359375 244.085938 309.992188 242.546875 C 308.625 241.007812 306.5 240 304 240 Z M 304 244 C 305.5 244 306.375 244.492188 307.007812 245.203125 C 307.640625 245.914062 308 246.945312 308 248 C 308 249.054688 307.640625 250.085938 307.007812 250.796875 C 306.375 251.507812 305.5 252 304 252 C 302.5 252 301.625 251.507812 300.992188 250.796875 C 300.359375 250.085938 300 249.054688 300 248 C 300 246.945312 300.359375 245.914062 300.992188 245.203125 C 301.625 244.492188 302.5 244 304 244 Z M 304 244 "/>
</g>
</svg>
