<?xml version="1.0" encoding="UTF-8"?>
<svg xmlns="http://www.w3.org/2000/svg" xmlns:xlink="http://www.w3.org/1999/xlink" viewBox="0 0 100 100" width="100px" height="100px">
<g id="surface108355919">
<path style=" stroke:none;fill-rule:nonzero;fill:rgb(0%,0%,0%);fill-opacity:1;" d="M 8 12 L 8 24 C 7.875 24.617188 6 33.679688 6 39 C 6 41.757812 6.539062 44.390625 8 46.5 L 8 96 L 92 96 L 92 46.5 C 93.460938 44.390625 94 41.757812 94 39 C 94 33.734375 92.164062 24.929688 92 24.125 C 92 24.085938 92 24.039062 92 24 L 92 12 Z M 12 16 L 88 16 L 88 22 L 78.375 22 C 78.109375 21.945312 77.828125 21.945312 77.5625 22 L 64.4375 22 C 64.234375 21.945312 64.023438 21.921875 63.8125 21.9375 C 63.75 21.953125 63.6875 21.976562 63.625 22 L 50.4375 22 C 50.234375 21.945312 50.023438 21.921875 49.8125 21.9375 C 49.75 21.953125 49.6875 21.976562 49.625 22 L 36.4375 22 C 36.234375 21.945312 36.023438 21.921875 35.8125 21.9375 C 35.75 21.953125 35.6875 21.976562 35.625 22 L 22.4375 22 C 22.234375 21.945312 22.023438 21.921875 21.8125 21.9375 C 21.75 21.953125 21.6875 21.976562 21.625 22 L 12 22 Z M 11.75 26 L 20 26 L 20 43.75 C 18.71875 45.101562 16.992188 46 15 46 C 13.453125 46 12.476562 45.609375 11.75 44.875 C 11.625 44.632812 11.460938 44.421875 11.25 44.25 C 10.453125 43.101562 10 41.210938 10 39 C 10 35.054688 11.40625 27.835938 11.75 26 Z M 24 26 L 34 26 L 34 43.75 C 32.71875 45.101562 30.992188 46 29 46 C 27.007812 46 25.28125 45.101562 24 43.75 Z M 38 26 L 48 26 L 48 43.75 C 46.71875 45.101562 44.992188 46 43 46 C 41.007812 46 39.28125 45.101562 38 43.75 Z M 52 26 L 62 26 L 62 43.8125 C 60.726562 45.148438 58.984375 46 57 46 C 55.007812 46 53.28125 45.101562 52 43.75 Z M 66 26 L 76 26 L 76 43.8125 C 74.726562 45.148438 72.984375 46 71 46 C 69.015625 46 67.273438 45.148438 66 43.8125 Z M 80 26 L 88.25 26 C 88.59375 27.835938 90 35.054688 90 39 C 90 40.96875 89.640625 42.648438 89 43.8125 C 88.53125 44.085938 88.195312 44.539062 88.0625 45.0625 C 87.359375 45.679688 86.414062 46 85 46 C 83.015625 46 81.273438 45.148438 80 43.8125 Z M 64 47.0625 C 65.921875 48.742188 68.242188 50 71 50 C 73.757812 50 76.078125 48.742188 78 47.0625 C 79.921875 48.742188 82.242188 50 85 50 C 86.0625 50 87.085938 49.8125 88 49.5 L 88 92 L 82 92 L 82 56 L 60 56 L 60 92 L 12 92 L 12 49.5 C 12.914062 49.8125 13.9375 50 15 50 C 17.75 50 20.078125 48.796875 22 47.125 C 23.921875 48.796875 26.25 50 29 50 C 31.75 50 34.078125 48.796875 36 47.125 C 37.921875 48.796875 40.25 50 43 50 C 45.75 50 48.078125 48.796875 50 47.125 C 51.921875 48.796875 54.25 50 57 50 C 59.757812 50 62.078125 48.742188 64 47.0625 Z M 18 56 L 18 86 L 54 86 L 54 56 Z M 22 60 L 50 60 L 50 82 L 22 82 Z M 64 60 L 78 60 L 78 92 L 64 92 Z M 64 60 "/>
</g>
</svg>
