<svg xmlns="http://www.w3.org/2000/svg"  viewBox="0 0 512 512" width="240px" height="240px"><path fill="#BCBCBC" d="M232.3 322.4c-2.7 25.2-4.2 52.9-17.5 75.2-6 10.1-13.7 18.7-24.8 23.3-10.7 4.4-22.5 5.5-33.9 4.4-19.6-2-45.3-10.5-47.1-33.6-1.6-21.4 12.6-41.8 22.5-59.6 7.2-12.9 14.8-25.7 21.3-38.9 5.7-11.6 11.5-23.2 20.7-32.5 14.8-15.1 41.3-13.3 54.1 3.4.7.8 1 1.7 1 2.5 10.4-4.2 17.7-11.9 25.6-19.4-.4-.2-.7-.3-1.1-.6-7.4-5.2-13.3-12.4-17.8-20.4-1.2.6-2.6.7-4.1.2-10.2-3.8-21.5-4.4-32.6-2.8-.8.5-1.7.6-2.6.4-11.4 2-22.6 6.2-32.3 11.4-9.9 5.3-19.4 11.9-27 20.3-8.2 9.1-13.6 20-17.6 31.4-4.5 13-7.9 26.3-13.3 39-5.4 12.7-12.3 24.9-17 37.9-6.9 18.8-5.5 39 7.9 54.6 14.3 16.6 36 24.4 56.8 29 21.4 4.7 45.6 7.6 66.2-1.6 23-10.2 34-34 37.1-57.8 3.1-24.2.6-48.8 4.4-73C251.9 318.8 242.2 321.2 232.3 322.4zM234.2 142.3c-10.9 1.7-21.2 7.5-30.6 13-10.8 6.3-20.8 14.1-29.3 23.3-8.8 9.5-16.3 20.2-21.7 32-3.8 8.4-6.3 17.1-8.9 25.8 6.9-5.2 14.4-9.6 22.4-13.1 8.7-3.9 18-7 27.5-8.7 7.5-10.9 14.7-28.9 29.5-30.6C222 169.2 224.9 154.6 234.2 142.3zM437.7 124.5c-8.5-19-20.8-39.5-38.8-51-9-5.7-19.2-9.3-30-8.4-13.4 1.2-25.8 8-37.1 14.9-12.2 7.4-23.6 15.9-35.1 24.3-10.5 7.6-21.3 14.9-31.7 22.7-9.7 7.2-20.1 15.3-26.1 26-5.1 9.3-7 19.5-6.2 30 1.5 20.3 9.7 43.8 27 56 .7.5 1.2 1.1 1.5 1.8 6.8-5.7 17.7-14.5 25.1-23.9-.7-.5-1.3-1.3-1.7-2.4-1.3-4-5.2-5.9-7.5-9.3-2.1-3.1-3.8-6.3-4.8-10-2-7.2-.5-15.3 2.9-21.8 7.3-13.6 18.7-26.2 29.4-37.3 11.2-11.7 23.6-22.5 37.1-31.5 12.9-8.7 26.4-15.3 41.8-8.2 2 .9 2.8 2.6 2.7 4.3 13.4 5.7 16.7 19.3 19.4 32.5 3.2 15.4 6.6 31.9 1.8 47.3-4.9 15.7-15.7 30.9-28 41.8-5.9 5.3-12.4 10.8-20.2 13-7.8 2.2-15.6 2.5-23.6 2.5-1 0-1.9-.2-2.6-.6-4.1 10.6-9.2 20.8-15.4 30.3 26.6 9 53.9-.9 76.7-15.8 21.4-13.9 42.5-30.8 50-56.2C451.6 171.8 447.7 146.8 437.7 124.5z"/><path fill="#BCBCBC" d="M329,183c-6.2-8.9-15.2-15.8-24.8-20.7c-1.2-0.6-2-1.5-2.4-2.5c0,0,0,0,0,0c-1.3,0.1-2.6-0.3-3.6-1.2c-0.3,0.4-0.7,0.8-1,1.2c-3.4,4.3-7.3,8.7-10.3,13.5c3.9,1.5,7.7,5.3,10.2,8.2c5.6,6.5,8.6,15.2,6.7,23.8c-3.6,16.1-17.6,27.6-29.6,37.7c-5.9,5-11.8,9.8-17.1,15.4c-6.9,7.4-15.1,13.8-24.6,17.4c-18.4,7-37.8,3.7-55.2-4.5c-0.1,0-0.2-0.1-0.2-0.1c-6.2,7.1-10.5,16.4-14.5,24.8c41.4,28.9,100.1,20.2,133.8-16.8c16.5-18.1,27.6-40.6,33.8-64.2C332.9,203.8,336.2,193.2,329,183z"/><path d="M422.2,81.1c-14.5-16.4-34.2-28.3-56.7-25.6c-13,1.5-25.1,8.1-36.3,14.6c-12.3,7.1-23.8,15.7-35.3,24.1c-10.6,7.7-21.4,15.2-32,22.9c-6.5,4.7-13,9.7-18.8,15.3c-0.6-0.3-1.2-0.4-2-0.5c-14-0.6-27.2,6.1-39,12.8c-12.2,6.8-23.3,15.1-33.2,25.1c-9.4,9.4-17.2,20.5-23.3,32.2c-7.2,13.9-10,29.2-15.6,43.7c-0.5,1.2-0.5,2.3-0.2,3.2c-6.3,6.9-11.5,14.7-15.6,23.5c-5.7,12.6-8.5,26.1-13.3,39c-5.2,14.3-12.2,28-18.5,41.9c-9.2,20.2-11.2,42.5-0.1,62.3c10.4,18.4,30.4,29.8,49.8,36.4c21,7.2,44.5,11.3,66.7,9.3c23.4-2.2,42.7-13.8,55.3-33.7c13.5-21.3,13.9-48,14.4-72.3c0.3-13.6,0.4-27.1,2.8-40.5c0.3-1.5-0.1-2.8-0.9-3.8c8.4-4.2,16.4-9.5,23.7-15.8c6.6-5.8,12.5-12.2,17.8-19.2c26.6,9.8,53.5,3.6,77.9-9.7c22.9-12.5,45.8-29.8,58.2-53.2C471,170.3,452.5,115.3,422.2,81.1z M152.5,210.5c5.4-11.8,12.9-22.5,21.7-32c8.5-9.2,18.5-17,29.3-23.3c9.4-5.5,19.7-11.3,30.6-13c-9.3,12.3-12.2,27-11.3,41.7c-14.7,1.6-21.9,19.7-29.5,30.6c-9.5,1.7-18.8,4.8-27.5,8.7c-8,3.6-15.6,8-22.4,13.1C146.2,227.7,148.7,218.9,152.5,210.5z M230.2,215.6c-7.9-2.2-16-2.9-24.1-2.6c1.4-2.3,2.8-4.6,4.3-6.8c3.1-4.6,7.6-11.5,13.6-12.3c0.6,3.2,1.3,6.4,2.1,9.6C227.2,207.5,228.6,211.6,230.2,215.6z M256.8,388.2c-3,23.8-14.1,47.5-37.1,57.8c-20.6,9.2-44.9,6.4-66.2,1.6c-20.7-4.6-42.5-12.5-56.8-29C83.3,403,81.9,382.8,88.8,364c4.7-13,11.6-25.2,17-37.9c5.4-12.7,8.7-26,13.3-39c4-11.5,9.4-22.4,17.6-31.4c7.6-8.4,17.1-15,27-20.3c9.6-5.2,20.8-9.4,32.3-11.4c0.9,0.2,1.8,0.1,2.6-0.4c11.1-1.6,22.3-1,32.6,2.8c1.5,0.6,2.9,0.4,4.1-0.2c4.6,8,10.5,15.2,17.8,20.4c0.3,0.2,0.7,0.4,1.1,0.6c-7.9,7.5-15.2,15.1-25.6,19.4c-0.1-0.8-0.4-1.7-1-2.5c-12.9-16.7-39.3-18.4-54.1-3.4c-9.1,9.3-15,20.9-20.7,32.5c-6.5,13.3-14.1,26-21.3,38.9c-9.9,17.8-24.1,38.2-22.5,59.6c1.8,23.1,27.5,31.6,47.1,33.6c11.4,1.2,23.3,0.1,33.9-4.4c11.1-4.6,18.7-13.2,24.8-23.3c13.3-22.3,14.8-50,17.5-75.2c9.9-1.1,19.6-3.6,28.9-7.2C257.4,339.3,259.9,364,256.8,388.2z M219,269.2c-11.4,1.8-23.1-0.8-33.7-5.3c0.1-0.1,0.1-0.1,0.2-0.2C195.8,257.3,211.3,259.9,219,269.2z M158,305c19.2,12.8,41.8,18.7,64.2,18.1c-2.5,23.8-4.3,48.9-16.4,70.1c-5.8,10.1-14,17.1-25.2,20.5c-10.7,3.2-22.5,2.4-33.3,0.1c-9.8-2.1-21.7-6.1-26.4-15.9c-4.1-8.5-1.4-18.6,1.8-26.8c3.9-10.3,9.6-20,15-29.6C144.5,329.4,151.6,317.3,158,305z M296.3,279.2c-33.6,37-92.4,45.7-133.8,16.8c4.1-8.5,8.4-17.7,14.5-24.8c0.1,0,0.2,0.1,0.2,0.1c17.4,8.2,36.8,11.5,55.2,4.5c9.5-3.6,17.7-10,24.6-17.4c5.3-5.6,11.2-10.4,17.1-15.4c12-10.1,26-21.6,29.6-37.7c1.9-8.5-1.1-17.3-6.7-23.8c-2.4-2.8-6.3-6.7-10.2-8.2c3-4.7,6.9-9.2,10.3-13.5c0.3-0.4,0.7-0.8,1-1.2c1,0.8,2.3,1.3,3.6,1.2c0,0,0,0,0,0c0.4,1,1.1,1.9,2.4,2.5c9.6,4.9,18.6,11.8,24.8,20.7c7.2,10.2,3.9,20.8,1,32C323.9,238.6,312.7,261.1,296.3,279.2z M283.6,196.7c-2.3-3.8-2.5-8-1.6-12.1c1.1,0.2,2.2,0,3.3-0.5c10.1,6.7,10.8,15,7.1,23.3C289.8,203.6,286.1,200.8,283.6,196.7z M381.2,109.3c11.5,4.5,13.1,17,15.3,27.9c2.7,13.2,5,26.6,1.7,39.9c-3.4,13.7-13.9,26.5-23.7,36.3c-5.2,5.2-11.4,10.2-18.4,12.5c-6.2,2.1-13,2-19.5,2c1.3-4.1,2.5-8.2,3.6-12.4c1.5-5.9,3.4-12.4,3.5-18.5c0.2-11.5-6.7-21.2-14.5-29c-5.9-5.9-13.1-10.7-20.5-14.5c-0.8-0.4-1.6-0.6-2.3-0.6c-0.2-0.8-0.6-1.7-1.2-2.3c2-2.2,4-4.4,6-6.6c9.4-10,19.7-19.1,30.8-27.2c10.6-7.7,22.9-17.4,36.5-11.7C378.3,106.7,379.1,108.5,381.2,109.3z M444.6,195.5c-7.5,25.5-28.7,42.3-50,56.2c-22.8,14.8-50.1,24.7-76.7,15.8c6.2-9.5,11.3-19.8,15.4-30.3c0.7,0.4,1.6,0.6,2.6,0.6c8,0,15.8-0.3,23.6-2.5c7.8-2.3,14.3-7.7,20.2-13c12.2-10.9,23-26.1,28-41.8c4.9-15.4,1.4-32-1.8-47.3c-2.7-13.2-6-26.8-19.4-32.5c0.1-1.7-0.7-3.4-2.7-4.3c-15.4-7.1-28.9-0.5-41.8,8.2c-13.5,9.1-25.9,19.8-37.1,31.5c-10.7,11.1-22,23.7-29.4,37.3c-3.5,6.5-4.9,14.6-2.9,21.8c1,3.6,2.6,6.9,4.8,10c2.3,3.4,6.2,5.3,7.5,9.3c0.4,1.1,1,1.9,1.7,2.4c-7.4,9.5-18.4,18.2-25.1,23.9c-0.3-0.6-0.8-1.2-1.5-1.8c-17.3-12.2-25.5-35.6-27-56c-0.8-10.5,1-20.7,6.2-30c6-10.8,16.4-18.8,26.1-26c10.4-7.7,21.2-15,31.7-22.7c11.5-8.4,22.9-16.9,35.1-24.3c11.3-6.9,23.7-13.7,37.1-14.9c10.8-1,21,2.7,30,8.4c18,11.4,30.3,32,38.8,51C447.7,146.8,451.6,171.8,444.6,195.5z"/></svg>