<svg xmlns="http://www.w3.org/2000/svg"  viewBox="0 0 512 512" width="240px" height="240px"><path fill="#D6E5E5" d="M228.6,172c-0.8-12.5-1-24.9-1.8-37.4c-0.6-9.4-1-19,1.2-28.2c-25.5-0.2-51.1-0.8-76.6,0.4c-4.9,0.2-9.9,0.3-14.9,0.4c-0.3,4.5-0.8,8.8-1.1,13.3c-0.9,18.3-1.9,36.6-2.5,54.9c-0.6,18.4,0,36.9,1.2,55.3c0.7,10,1.5,20.1,1.7,30.1c0,0,0.1,0.1,0.1,0.1c20.2,23.3,72.1,33,90.5,2.6c0.6-1,1.5-1.8,2.4-2.3C228.9,231.5,230.5,201.8,228.6,172z"/><path fill="#3AB37C" d="M194.4 439.8c-.6-3.8-2.3-7.6-4.5-10.7-6.4-9.1-19.2-14.6-27.5-4.2-2.2 2.7-6.8 2.3-8.7-.6-5.2-8.1-10.9-21.8-22.6-19.7-6 1.1-11.7 3.7-12.2 10.4-.4 5.2.8 10.5.8 15.8 0 2.8-1.9 5.9-5.1 5.9-13.8.2-29.4 7.3-28.9 23.1 0 .8-.1 1.5-.3 2.1 2.9 6.7 7.8 13.5 15.9 13.6 9.1.1 17.4-4 24.9-8.8 2-1.2 5-1.4 6.7.4 4.4 4.6 10.6 6.1 16.8 6.7 5.5.6 12.2 1 17.6-.4 11.5-3 18.1-10.7 17.5-22.8-.1-2.7 2-6 5.1-5.9C194.1 444.9 195.1 444 194.4 439.8zM332.8 466.7c-.4-17.6-20.4-31-34.4-16.8-3.3 3.3-9.2 1.7-9.6-3.2-.6-7.7.5-20.8-9.6-23-10.9-2.4-22.5 3.3-29.8 11.2-2.4 2.6-6.7 2.5-8.7-.6-7-10.8-29-23.3-39.3-10.4-.3.4-.7.8-1.1 1.1 3.3 5.8 6.2 12.9 5.1 19.6-.9 5.7-4.7 9.3-9.7 10.6-.6 7.2-3.4 13.8-7.9 18.9 1.5.1 2.9.7 4 2.1 8.6 10.6 27.1 9.1 38.5 4.7 6.3-2.4 11.7-8.4 18.7-9.1 7.5-.7 9.9 8.6 15.8 9.8 9.3 2 17.3 2.2 25.4-3 5.3-3.4 10.2-7.5 16.9-6 5.4 1.2 25 6.1 26.6-3.1C333.2 468.8 332.8 467.9 332.8 466.7z"/><path fill="#EF4823" d="M103.6,108.4c-12.3,1-25.6-0.2-37.6,3.3c-0.4,0.6-0.9,1.2-1.5,1.6c-1.6,5.2-2.1,11-2.7,16.2c-0.9,6.9-2,13.7-3.1,20.5c-2.3,13.2-5.2,26.6-6.5,40c-2.4,23.3-2.9,47.1-9.7,69.6c0.9,0.4,1.8,1.1,2.4,2.3c6.3,11.6,24.4,15,36.3,15.8c16,1.1,30.7-6.9,43.6-15.9c-0.2-25.3-3.4-50.4-3-75.8c0.2-16.4,1.5-32.8,2.1-49.2c0.2-7.4,0.8-14.8,1-22.1c0.1-2,0.3-4.1,0.5-6.1c0-0.5,0.1-0.9,0.1-1.4C118.2,107.5,110.9,107.8,103.6,108.4z"/><path fill="#D6E5E5" d="M394.6,84.2c0-4.8,0.6-9.9,0.5-14.8c-4,0.2-8.1-0.1-12.2-0.3c-5.9-0.4-12.8-1.3-18.5,0.5c-1,0.3-2,0.7-2.9,1.2c0.2,0-0.3,0.7-0.3,1.4c-0.2,2.7,0.2,5.6,0.6,8.3c0.7,4.8,1.8,9.4,2.7,14.2c10.2,0,20.4-0.1,30.7-0.1C394.4,91.1,394.6,87,394.6,84.2z"/><path fill="#EF4823" d="M336.2,218.7c-2.5-17-3.9-34.2-5.4-51.3c-1.1-12.4-2.8-24.2-5-36.4c-1.2-6.6-4.3-18.6,0.1-25.1c-25.8,0.2-51.7,0.3-77.5,0.5c-3,0-6.1,0-9.1,0c0,0,0,0,0,0.1c-3.7,10.3-1.8,22.6-1,33.2c0.9,12.4,1,24.9,1.8,37.3c1.8,28.2-0.2,56.4-0.2,84.6c0,1.5-0.5,2.7-1.2,3.6c14.3,12.6,32.3,22.1,51.4,24.1c21.2,2.2,39.8-7,50.9-25C340.9,249,338.4,233.8,336.2,218.7z"/><path fill="#D6E5E5" d="M424.9,243c-2.4-7.3-3.6-15-5.9-22.4c-2.5-8.3-5.4-16.4-8.2-24.5c-2.9-8.4-4.7-17.2-6.5-25.9c-1.8-8.6-3.5-17.2-5.1-25.8c-0.9-4.7-2.7-9.3-4.1-13.9c-2.1-7.3-5.5-17.1-3-24.9c-18.6,0.1-37.1,0.2-55.7,0.3c1,1.7,1,3.9-0.9,5.8c-0.1,0.1-0.1,0.1-0.2,0.1c0,0.1,0,0.2,0,0.3c-0.1,0.6-0.2,1.1-0.2,1.7c0,2.4,0.1,4.8,0.4,7.1c0.6,5,1.5,9.9,2.5,14.8c2.4,12,3.4,24.2,4.4,36.4c1.4,16.5,3,32.9,5.4,49.3c2,13.9,4.2,27.8,4.2,41.9c5.6,4.2,10.8,9.2,17,12.4c8,4.2,15.8,6.5,24.9,5.8c15-1.2,28.7-9.8,36-22.9C429.2,253.2,426.5,247.7,424.9,243z"/><path fill="#FEBF10" d="M475.9,432.5c-0.5-11.5-0.1-23.1-0.1-34.6c0-18.7,0.9-37.7-0.3-56.3c-0.8-12.9-2-25.7-2.3-38.6c-0.1-5.8-0.3-11.7,0.5-17.5c0.2-1.9,0.6-4,1.4-5.9c-13.3,0-25.9-4.7-37.3-11.4c-0.4,0.2-0.8,0.3-1.3,0.3c-9.2,13.2-24.3,22.6-40.5,23.9c-10.4,0.8-19.8-0.9-29.2-5.3c-7.1-3.4-12.8-8.6-19.1-13.3c-13.2,18.3-33.2,28.4-56.4,26.7c-21.9-1.6-42.7-11.9-59.2-26.2c-24.2,29.6-75.5,22-101.5-3c-15.7,10.8-33.2,19.3-52.7,17.3c-2-0.2-4.1-0.5-6.3-0.8c0.1,13.1,2.1,26.1,3,39.2c1,15.4,2,30.9,3.2,46.3c1.3,15.6,1.9,31.1,1.9,46.8c0,7.2-0.8,15.3-0.3,23.1c6-9.5,17.1-15.4,29-16.9c-0.5-5.9-1.2-11.9,0.6-17.5c2.8-8.7,11.2-13.2,19.8-14.7c15-2.7,23.3,7.7,30.5,18.8c10.5-7.4,24.5-4.8,34,3.7c13.5-16.5,39.5-7.3,52.5,6.8c10.1-8.4,24.3-13.8,36.9-9.8c11.5,3.7,14.7,12.8,16.1,22.9c8.1-4.2,17.6-4.7,26.3-0.3c6.3,3.2,11.2,8.2,14.5,14.1c-2.6-22.8-0.6-46-2.7-68.9c-1.2-13-2.4-26.2-4.7-39.1c-2.1-12-4.8-23.7-4.4-35.9v-0.5l0,0c0-0.5,0-1,0.1-1.5c0.2-3.5,3.7-4.8,6.7-4.2c0.5-0.4,1.1-0.8,1.9-1c10.6-3.2,21.6-2.4,32.5-1.7c8.3,0.5,16.2,0.2,24.4-0.4c13.7-0.9,35.1-2.9,38.8,14.5c1.1,5.4,0.6,10.9,0.4,16.4c-0.2,5.5,0.5,11,0.8,16.5c0.7,13.3,1.1,26.6,1.9,39.8c1.6,25,3.7,50,6.9,74.9c9.9-3.1,21.1-5.4,31-3.3c0.4,0.1,0.7,0.2,1,0.3c0-0.1,0.1-0.2,0.1-0.3c0.7-2.9,1.7-5.9,1.7-8.9C476.4,442.1,476.1,437.3,475.9,432.5z M266.3,327.6c-1.1,15.4-0.6,30.8-0.6,46.2c0,5.5-6.7,7.3-9.6,4.4c-7.4,6.3-19.8,6.3-28.8,6.2c-10.9-0.2-21.8-2-32.7-1.6c-11.5,0.4-22.9,1.8-34.4,1.2c-9.3-0.5-21.6-1.5-27.2-10.1c-0.8-0.6-1.6-1.5-2-2.8c-4.2-12.9-0.2-26-1.3-39.2c-0.6-7.6-4.9-17.5,0.4-24.3c0.3-0.4,0.6-0.7,0.9-0.9c0.4-2.1,1.9-3.9,4.8-3.9c18.9,0,37.7,1.1,56.6,1.6c18.4,0.5,36.8-0.1,55.1,1.2c5.9,0.4,13.4,1.2,16.6,7.1C266.6,317.5,266.7,322.3,266.3,327.6z"/><path fill="#EF4823" d="M506.3,247.5c-1.6-1.9-1.8-4.8-0.6-6.8c-3.3-10.5-9.2-19.8-14.7-29.4c-6.7-11.6-10.9-23.8-15.8-36.2c-4.8-12.4-9.2-24.9-14.7-37c-4.6-10.2-9.6-21.2-9.8-32.6h-8.7c-12.9,0-25.7,0-38.6,0.1c0,1-0.4,2.1-1.1,3.1c-1.2,1.7,0.5,8.7,1.1,11.1c1.3,5.3,2.9,10.5,4.5,15.6c4.4,14.3,6.1,29.6,9.5,44.2c3.9,16.3,11,31.7,14.7,48.1c2.1,9.4,7,19.3,8.2,29.2c11.1,6.9,24.2,13,37.5,11.5c10.3-1.2,18.2-7.3,24.6-14.9c-0.2-1.3,0.2-2.8,1.6-4.1C504.9,248.7,505.6,248.1,506.3,247.5z"/><path fill="#BCBCBC" d="M254.5 318.1c-1.4-1.7-5.2-1.5-7.2-1.6-3.9-.3-7.9-.5-11.8-.6-16.7-.4-33.4-.2-50.1-.8-15.4-.6-30.9-1.3-46.3-1.4-.2.4-.4.8-.7 1.1 1-1.3.2-.3.2.5 0 .7.1 1.5.1 2.2.2 2 .5 4 .9 6 .7 3.8 1.3 7.6 1.3 11.5 0 8.4-1.8 17.4-.8 25.9 1 .8 1.6 2.1 1.6 3.8v2.2c0 0 .1.1.1.1 3.9 6.6 16.9 6 23.5 6 9.8 0 19.5-1.2 29.2-1.4 9.8-.2 19.7 1.3 29.5 1.5 7.1.2 21 1.7 26.1-4.7 1.3-1.7 3-2.2 4.6-1.9-.2-12.2-.5-24.4.5-36.5C255.4 326.9 256.8 320.9 254.5 318.1zM424.8 390.7c-.9-12.1-1.3-24.1-1.8-36.2-.5-10.7-1.3-21.2-1-31.9.1-3.7.7-9.4-1.9-12.4-1.3-1.5-4.7-1.9-6.5-2.1-7.1-1-14.4-.4-21.5.1-7.4.5-14.5.7-21.9.2-9.8-.6-20.4-1.8-30 1.1-.5.2-1 .2-1.5.3 0 11.9 3.6 23.4 5.2 35.1 1.7 12.4 3.2 24.9 4.3 37.4 2.1 25.2-.6 50.6 3.7 75.6.3 1.7-.1 3-.9 3.9h38.3c8.8 0 17.5-.5 26.2-.8 4-.1 8.1-.3 12.1-.1 1.1.1 2.6.3 4 .3C428.4 437.7 426.5 414.2 424.8 390.7z"/><path d="M264.1,312.7c-3.1-6-10.7-6.7-16.6-7.1c-18.3-1.3-36.8-0.6-55.1-1.2c-18.9-0.6-37.7-1.6-56.6-1.6c-2.9,0-4.4,1.8-4.8,3.9c-0.3,0.3-0.6,0.6-0.9,0.9c-5.2,6.8-1,16.7-0.4,24.3c1.1,13.1-2.9,26.3,1.3,39.2c0.4,1.3,1.1,2.2,2,2.8c5.6,8.6,17.9,9.6,27.2,10.1c11.5,0.6,22.9-0.8,34.4-1.2c10.9-0.4,21.8,1.4,32.7,1.6c9,0.2,21.4,0.2,28.8-6.2c2.9,2.9,9.6,1.1,9.6-4.4c0-15.4-0.5-30.9,0.6-46.2C266.7,322.3,266.6,317.5,264.1,312.7z M255.2,330.2c-1,12.1-0.6,24.3-0.5,36.5c-1.6-0.3-3.3,0.2-4.6,1.9c-5.1,6.4-19,4.9-26.1,4.7c-9.8-0.3-19.7-1.7-29.5-1.5c-9.8,0.2-19.5,1.3-29.2,1.4c-6.5,0-19.5,0.6-23.5-6c0,0-0.1-0.1-0.1-0.1v-2.2c0-1.7-0.7-3-1.6-3.8c-1-8.5,0.8-17.5,0.8-25.9c0-3.9-0.6-7.7-1.3-11.5c-0.3-2-0.6-4-0.9-6c-0.1-0.7-0.1-1.5-0.1-2.2c0-0.9,0.7-1.8-0.2-0.5c0.3-0.4,0.5-0.7,0.7-1.1c15.5,0.1,30.9,0.8,46.3,1.4c16.7,0.6,33.4,0.4,50.1,0.8c3.9,0.1,7.9,0.3,11.8,0.6c1.9,0.1,5.7-0.1,7.2,1.6C256.8,320.9,255.4,326.9,255.2,330.2z"/><path d="M517.5,242.2c-2.6-11.9-8.8-22.5-14.9-33c-3.2-5.4-6.4-10.8-9-16.5c-2.8-6.3-4.8-13.1-7.3-19.6c-4.6-12-8.7-24.1-14-35.8c-4.9-10.9-11-22.5-10.5-34.7c0.1-2.3-1-3.8-2.6-4.5c-0.8-2-2.6-3.6-5.3-3.6h-4c0,0-0.1,0-0.1,0c-14,0-28.1,0-42.1,0c-0.2-0.9-0.8-1.8-1.6-2.5c-0.2-1.2-0.3-2.4-0.3-3.6c-0.2-3.2-0.1-6.3,0-9.5c0.1-5.3,0.8-10.9,0.1-16.1c-0.5-3.8-3.7-5.6-7.3-4.8c-6.8,1.6-14.6,0.1-21.5-0.2c-7.3-0.3-14.7,0-21.2,3.7c-9.3,5.3-5.4,20.2-3,30.3c-0.5,0.8-0.8,1.9-0.8,2.9c-30.2,0.1-60.4,0.3-90.6,0.6c-32.4,0.3-64.8-0.4-97.2,0c-16,0.2-32.1,1-48.1,1.4c-14,0.4-28.4,0.8-42.4,2.3c-4.5,0.5-8.9,1.4-13.2,2.8c-1.3,0.4-2.2,1.2-2.7,2c-3.2,2.1-3.8,6.6-4.6,10.6c-1.6,7.4-2.4,15-3.2,22.5c-0.8,6.7-2.5,13.5-3.6,20.2c-1.2,7.4-2.4,14.8-3.7,22.2c-4.9,26.2-2.6,53.6-11.2,79.2c-1.2,3.5,1,6.6,3.7,7.7c0.1,0.6,0.3,1.2,0.6,1.9c4.8,8.9,14.7,14.1,25,17.1c-0.3,14.2,1.9,28.3,3,42.5c1.2,16.1,2.1,32.2,3.4,48.2c1.3,15.6,1.7,31.2,1.7,46.8c0,12.1-1.9,25.9,3.3,37.3c0.4,0.9,1,1.7,1.8,2.3c0.1,0.2,0.1,0.5,0.2,0.7c4.1,11.4,11.8,21.3,24.5,23.1c10.5,1.5,21.1-2.8,30.1-8.1c11.1,8.4,29.5,8.7,42.2,5.8c4-0.9,7.5-2.4,10.6-4.4c0,0.9,0.4,1.9,1.2,2.9c11,13.5,29.5,14.4,45.3,10.8c8-1.8,13.8-6.9,21.2-10c0.3,0.3,0.7,0.6,1,0.9c1.6,1.6,3.1,3.3,4.7,4.9c3.6,3.6,9.7,4.2,14.6,4.6c10,1,18.4,0,26.8-5.8c1.7-1.2,5.3-4.7,7.5-4.5c3.5,0.2,6.9,1.8,10.4,2.2c11.8,1.4,26.2-0.8,29.6-12.7h49.7c8.8,0,17.5-0.7,26.3-0.9c5.5-0.2,11.2,0.7,16.5-0.3c1,0.4,2.3,0.4,3.6,0c9.4-3.3,21.1-7,31.1-4.8c2.2,0.5,3.9-0.3,5-1.5c3.2,1.7,8.6-0.2,8.6-5.1c0,3.5,1-2.2,1.2-3c0.5-2,0.7-4.1,0.9-6.2c0.5-4.8,0.4-9.7,0.2-14.5c-0.4-10.5-0.4-21.1-0.4-31.6c0-20.2,0.9-40.6-0.1-60.8c-0.5-11.5-1.7-22.9-2.2-34.4c-0.3-6.1-0.5-12.1-0.3-18.2c0.1-2,0.3-3.9,0.6-5.8c0-0.1,0.2-0.9,0.3-1.3c2.1-1.7,2.1-4.2,1.1-6.2c12.2-3.5,22.2-13.1,29.2-23.4c1.4-2.1,1.4-4.5,0.5-6.4C517.4,246.8,517.9,244.3,517.5,242.2z M361.2,72.3c0.1-0.8,0.5-1.4,0.3-1.4c0.9-0.6,1.9-0.9,2.9-1.2c5.7-1.9,12.7-0.9,18.5-0.5c4.1,0.2,8.1,0.5,12.2,0.3c0,4.9-0.5,10-0.5,14.8c0,2.8-0.2,6.9,0.6,10.4c-10.2,0-20.4,0.1-30.7,0.1c-0.9-4.7-1.9-9.4-2.7-14.2C361.5,77.9,361,75,361.2,72.3z M335.2,112.1c0-0.1,0-0.2,0-0.3c0,0,0.1-0.1,0.2-0.1c1.9-1.9,2-4.1,0.9-5.8c18.6-0.1,37.1-0.2,55.7-0.3c-2.5,7.8,0.9,17.6,3,24.9c1.3,4.6,3.2,9.2,4.1,13.9c1.6,8.6,3.3,17.2,5.1,25.8c1.8,8.7,3.7,17.5,6.5,25.9c2.8,8.2,5.7,16.3,8.2,24.5c2.2,7.4,3.5,15.1,5.9,22.4c1.6,4.7,4.3,10.3,4.9,15.6c-7.3,13.2-21.1,21.7-36,22.9c-9.1,0.7-17-1.6-24.9-5.8c-6.2-3.2-11.4-8.2-17-12.4c0-14.1-2.1-28-4.2-41.9c-2.4-16.4-4-32.8-5.4-49.3c-1-12.2-2-24.4-4.4-36.4c-1-4.9-1.9-9.8-2.5-14.8c-0.3-2.4-0.4-4.7-0.4-7.1C335,113.2,335.1,112.6,335.2,112.1z M239.2,106.5C239.2,106.5,239.2,106.4,239.2,106.5c3.1-0.1,6.1-0.1,9.2-0.1c25.8-0.2,51.7-0.3,77.5-0.5c-4.4,6.5-1.2,18.4-0.1,25.1c2.2,12.2,3.9,24,5,36.4c1.5,17.1,2.9,34.3,5.4,51.3c2.2,15.2,4.8,30.4,4.7,45.7c-11.2,18-29.8,27.2-50.9,25c-19.1-2-37.1-11.5-51.4-24.1c0.8-0.9,1.2-2.1,1.2-3.6c0-28.2,2-56.4,0.2-84.6c-0.8-12.4-0.9-24.9-1.8-37.3C237.4,129.1,235.5,116.8,239.2,106.5z M132.9,175.4c0.6-18.3,1.6-36.6,2.5-54.9c0.2-4.5,0.8-8.8,1.1-13.3c5-0.1,9.9-0.2,14.9-0.4c25.5-1.1,51.1-0.5,76.6-0.4c-2.2,9.2-1.8,18.8-1.2,28.2c0.8,12.5,1,24.9,1.8,37.4c1.9,29.8,0.3,59.4,0.2,89.2c-1,0.5-1.9,1.3-2.4,2.3c-18.4,30.3-70.3,20.7-90.5-2.6c0,0-0.1-0.1-0.1-0.1c-0.2-10.1-1-20.1-1.7-30.1C132.9,212.3,132.3,193.9,132.9,175.4z M44.8,262c-0.6-1.2-1.5-1.9-2.4-2.3c6.8-22.6,7.3-46.3,9.7-69.6c1.4-13.4,4.3-26.8,6.5-40c1.2-6.9,2.3-13.6,3.1-20.5c0.6-5.2,1.1-11.1,2.7-16.2c0.6-0.5,1.1-1,1.5-1.6c12-3.5,25.2-2.3,37.6-3.3c7.3-0.6,14.6-0.8,21.9-1c0,0.5-0.1,0.9-0.1,1.4c-0.2,2-0.5,4.1-0.5,6.1c-0.2,7.4-0.7,14.8-1,22.1c-0.6,16.4-1.9,32.8-2.1,49.2c-0.3,25.3,2.8,50.5,3,75.8c-12.9,8.9-27.6,17-43.6,15.9C69.2,276.9,51.1,273.6,44.8,262z M184.8,450.7c0.6,12.1-6,19.8-17.5,22.8c-5.4,1.4-12.1,0.9-17.6,0.4c-6.2-0.6-12.4-2.1-16.8-6.7c-1.7-1.8-4.8-1.7-6.7-0.4c-7.5,4.8-15.8,8.9-24.9,8.8c-8-0.1-13-6.8-15.9-13.6c0.2-0.6,0.3-1.3,0.3-2.1c-0.4-15.8,15.2-22.9,28.9-23.1c3.1,0,5.1-3.1,5.1-5.9c-0.1-5.2-1.2-10.5-0.8-15.8c0.5-6.7,6.1-9.3,12.2-10.4c11.7-2.1,17.5,11.6,22.6,19.7c1.9,2.9,6.5,3.3,8.7,0.6c8.3-10.4,21.2-4.9,27.5,4.2c2.2,3.1,3.9,6.9,4.5,10.7c0.7,4.3-0.3,5.1-4.6,5C186.8,444.7,184.6,447.9,184.8,450.7z M307.1,472.7c-6.7-1.5-11.6,2.6-16.9,6c-8.1,5.2-16.2,5-25.4,3c-5.8-1.3-8.3-10.5-15.8-9.8c-7,0.6-12.4,6.7-18.7,9.1c-11.4,4.4-29.8,5.8-38.5-4.7c-1.1-1.4-2.6-2-4-2.1c4.5-5.1,7.2-11.6,7.9-18.9c5-1.3,8.8-4.9,9.7-10.6c1.1-6.7-1.8-13.9-5.1-19.6c0.4-0.3,0.8-0.6,1.1-1.1c10.3-12.9,32.3-0.3,39.3,10.4c2,3,6.3,3.1,8.7,0.6c7.3-7.9,18.9-13.6,29.8-11.2c10,2.2,9,15.3,9.6,23c0.4,5,6.3,6.5,9.6,3.2c14-14.2,34-0.8,34.4,16.8c0,1.2,0.4,2.2,0.9,2.9C332.1,478.8,312.5,473.9,307.1,472.7z M427.4,460.8c-4-0.2-8.1,0-12.1,0.1c-8.8,0.3-17.5,0.8-26.2,0.8h-38.3c0.8-0.9,1.2-2.3,0.9-3.9c-4.3-25-1.6-50.4-3.7-75.6c-1-12.5-2.6-25-4.3-37.4c-1.6-11.7-5.1-23.3-5.2-35.1c0.5,0,1-0.1,1.5-0.3c9.6-2.9,20.1-1.7,30-1.1c7.4,0.4,14.5,0.3,21.9-0.2c7.1-0.5,14.4-1.1,21.5-0.1c1.8,0.3,5.2,0.7,6.5,2.1c2.7,3,2,8.7,1.9,12.4c-0.3,10.7,0.5,21.2,1,31.9c0.6,12.1,1,24.2,1.8,36.2c1.7,23.6,3.7,47.1,6.7,70.5C430,461.1,428.5,460.9,427.4,460.8z M476.2,446.9c-0.1,3-1.1,6-1.7,8.9c-0.1,0.1-0.1,0.2-0.1,0.3c-0.3-0.1-0.7-0.2-1-0.3c-10-2.2-21.1,0.1-31,3.3c-3.2-24.9-5.3-49.9-6.9-74.9c-0.9-13.3-1.2-26.6-1.9-39.8c-0.3-5.5-1-11-0.8-16.5c0.2-5.5,0.7-11-0.4-16.4c-3.7-17.4-25.1-15.4-38.8-14.5c-8.2,0.5-16.2,0.9-24.4,0.4c-10.9-0.7-21.9-1.5-32.5,1.7c-0.8,0.2-1.4,0.6-1.9,1c-3-0.7-6.5,0.6-6.7,4.2c0,0.5,0,1-0.1,1.5l0,0v0.5c-0.4,12.2,2.3,23.9,4.4,35.9c2.3,12.9,3.5,26.1,4.7,39.1c2.1,22.9,0,46.1,2.7,68.9c-3.2-5.9-8.2-10.9-14.5-14.1c-8.7-4.5-18.2-3.9-26.3,0.3c-1.4-10.1-4.6-19.2-16.1-22.9c-12.6-4-26.8,1.4-36.9,9.8c-13-14.1-39-23.2-52.5-6.8c-9.6-8.5-23.6-11.1-34-3.7c-7.2-11-15.4-21.4-30.5-18.8c-8.6,1.5-17,6-19.8,14.7c-1.8,5.6-1.1,11.6-0.6,17.5c-12,1.5-23,7.4-29,16.9c-0.5-7.7,0.3-15.9,0.3-23.1c0-15.7-0.6-31.2-1.9-46.8c-1.2-15.4-2.2-30.9-3.2-46.3c-0.9-13.1-2.9-26.1-3-39.2c2.2,0.3,4.3,0.6,6.3,0.8c19.5,2,37-6.5,52.7-17.3c26,25.1,77.3,32.7,101.5,3c16.5,14.3,37.4,24.6,59.2,26.2c23.2,1.7,43.2-8.4,56.4-26.7c6.2,4.6,11.9,9.9,19.1,13.3c9.4,4.4,18.8,6.2,29.2,5.3c16.2-1.3,31.3-10.7,40.5-23.9c0.4,0,0.9-0.1,1.3-0.3c11.4,6.7,24,11.4,37.3,11.4c-0.8,1.9-1.2,4-1.4,5.9c-0.7,5.8-0.6,11.7-0.5,17.5c0.3,12.9,1.5,25.8,2.3,38.6c1.2,18.7,0.3,37.6,0.3,56.3c0,11.5-0.3,23.1,0.1,34.6C476.1,437.3,476.4,442.1,476.2,446.9z M504.1,249.4c-1.3,1.3-1.8,2.7-1.6,4.1c-6.3,7.6-14.3,13.8-24.6,14.9c-13.3,1.5-26.4-4.6-37.5-11.5c-1.2-9.9-6.1-19.7-8.2-29.2c-3.7-16.4-10.8-31.8-14.7-48.1c-3.5-14.6-5.1-29.9-9.5-44.2c-1.6-5.2-3.2-10.4-4.5-15.6c-0.6-2.4-2.4-9.4-1.1-11.1c0.7-1,1.1-2.1,1.1-3.1c12.9,0,25.7-0.1,38.6-0.1h8.7c0.2,11.4,5.2,22.4,9.8,32.6c5.5,12.1,9.8,24.6,14.7,37c4.9,12.5,9,24.6,15.8,36.2c5.5,9.5,11.4,18.9,14.7,29.4c-1.2,2-1,4.9,0.6,6.8C505.6,248.1,504.9,248.7,504.1,249.4z"/></svg>