<?xml version="1.0" encoding="UTF-8"?>
<svg xmlns="http://www.w3.org/2000/svg" xmlns:xlink="http://www.w3.org/1999/xlink" viewBox="0 0 400 400" width="400px" height="400px">
<g id="surface111761720">
<path style=" stroke:none;fill-rule:nonzero;fill:rgb(90.196079%,49.411765%,13.333334%);fill-opacity:1;" d="M 200 55.992188 C 199.160156 55.992188 198.320312 56.257812 197.601562 56.796875 L 57.601562 160.796875 C 56.601562 161.558594 56 162.71875 56 164 L 56 204 C 56 205.519531 56.84375 206.882812 58.203125 207.5625 C 59.5625 208.242188 61.160156 208.125 62.398438 207.203125 L 72 200.070312 L 72 332 C 72 334.207031 73.789062 336 76 336 L 324 336 C 326.210938 336 328 334.207031 328 332 L 328 200.070312 L 337.601562 207.203125 C 338.320312 207.722656 339.160156 208 340 208 C 340.601562 208 341.238281 207.84375 341.796875 207.5625 C 343.15625 206.882812 344 205.519531 344 204 L 344 164 C 344 162.71875 343.398438 161.558594 342.398438 160.796875 L 308 135.25 L 308 88 L 314 88 C 315.105469 88 316 87.105469 316 86 L 316 70 C 316 68.894531 315.105469 68 314 68 L 274 68 C 272.894531 68 272 68.894531 272 70 L 272 86 C 272 87.105469 272.894531 88 274 88 L 280 88 L 280 114.429688 L 202.398438 56.796875 C 201.679688 56.257812 200.839844 55.992188 200 55.992188 Z M 200 65 L 280 124.429688 L 280 136 C 280 136.628906 280.292969 137.226562 280.796875 137.601562 L 292.796875 146.601562 C 293.675781 147.265625 294.9375 147.089844 295.601562 146.203125 C 296.261719 145.320312 296.078125 144.0625 295.195312 143.398438 L 283.992188 135 L 283.992188 86 C 283.992188 84.894531 283.097656 84 281.992188 84 L 276 84 L 276 72 L 312 72 L 312 84 L 306 84 C 304.894531 84 304 84.894531 304 86 L 304 150 L 303.203125 149.398438 C 302.328125 148.742188 301.066406 148.910156 300.398438 149.796875 C 299.738281 150.679688 299.921875 151.9375 300.804688 152.601562 L 304.804688 155.601562 C 305.15625 155.867188 305.578125 156 306.007812 156 C 306.3125 156 306.613281 155.929688 306.898438 155.789062 C 307.570312 155.449219 308 154.757812 308 154 L 308 145.210938 L 336 166 L 336 196.039062 L 202.398438 96.796875 C 201.679688 96.277344 200.839844 96 200 96 C 199.160156 96 198.320312 96.277344 197.601562 96.796875 L 64 196.039062 L 64 166 Z M 200 105 L 320 194.125 L 320 328 L 240 328 L 240 226 C 240 224.894531 239.105469 224 238 224 L 162 224 C 160.894531 224 160 224.894531 160 226 L 160 328 L 80 328 L 80 194.125 Z M 164 228 L 236 228 L 236 328 L 164 328 Z M 218 276 C 216.894531 276 216 276.894531 216 278 C 216 279.105469 216.894531 280 218 280 L 226 280 C 227.105469 280 228 279.105469 228 278 C 228 276.894531 227.105469 276 226 276 Z M 218 276 "/>
</g>
</svg>
