<?xml version="1.0" encoding="UTF-8"?>
<svg xmlns="http://www.w3.org/2000/svg" xmlns:xlink="http://www.w3.org/1999/xlink" viewBox="0 0 400 400" width="400px" height="400px">
<g id="surface108376787">
<path style=" stroke:none;fill-rule:nonzero;fill:rgb(0%,0%,0%);fill-opacity:1;" d="M 198 32 C 126.945312 32 66.542969 86.191406 64.078125 151.851562 L 63.921875 156 L 64 156 L 64 158 C 64 158.71875 64.386719 159.378906 65.007812 159.734375 L 156.46875 212 L 148 212 C 132.582031 212 120 224.582031 120 240 L 120 340 C 120 355.417969 132.582031 368 148 368 L 248 368 C 263.417969 368 276 355.417969 276 340 L 276 240 C 276 224.582031 263.417969 212 248 212 L 239.53125 212 L 330.992188 159.734375 C 331.613281 159.378906 332 158.71875 332 158 L 332 156 L 332.078125 156 L 331.921875 151.851562 C 329.457031 86.191406 269.054688 32 198 32 Z M 191.828125 40.148438 C 166.863281 60.484375 146.320312 100.777344 144.21875 146.351562 C 135.804688 138.554688 123.886719 132 106 132 C 92.761719 132 81.613281 135.320312 73.546875 142.25 C 81.023438 87.699219 131.292969 43.015625 191.828125 40.148438 Z M 204.171875 40.148438 C 264.707031 43.015625 314.976562 87.699219 322.453125 142.25 C 314.386719 135.320312 303.238281 132 290 132 C 272.113281 132 260.195312 138.554688 251.78125 146.351562 C 249.679688 100.777344 229.136719 60.484375 204.171875 40.148438 Z M 198 40.515625 C 223.8125 59.128906 246.574219 101.667969 247.882812 149.679688 C 245.9375 147.613281 243.261719 145.105469 239.414062 142.625 C 231.039062 137.230469 217.699219 132 198 132 C 178.300781 132 164.960938 137.230469 156.585938 142.625 C 152.738281 145.101562 150.0625 147.613281 148.117188 149.679688 C 149.425781 101.667969 172.191406 59.128906 198 40.515625 Z M 106 140 C 126.789062 140 137.28125 149.007812 144.882812 158.476562 L 146.75 160.804688 L 180.296875 212 L 164.53125 212 L 71.015625 158.5625 L 72.703125 155.539062 C 78.714844 144.78125 89.414062 140 106 140 Z M 198 140 C 216.300781 140 227.960938 144.761719 235.085938 149.351562 C 242.210938 153.941406 244.570312 158.03125 244.570312 158.03125 L 245.390625 159.390625 L 210.921875 212 L 185.078125 212 L 150.609375 159.390625 L 151.429688 158.03125 C 151.429688 158.03125 153.789062 153.941406 160.914062 149.351562 C 168.039062 144.761719 179.699219 140 198 140 Z M 290 140 C 306.585938 140 317.285156 144.78125 323.296875 155.539062 L 324.984375 158.5625 L 231.46875 212 L 215.703125 212 L 249.25 160.804688 L 251.117188 158.476562 C 258.71875 149.007812 269.210938 140 290 140 Z M 148 220 L 248 220 C 259.09375 220 268 228.90625 268 240 L 268 340 C 268 351.09375 259.09375 360 248 360 L 148 360 C 136.90625 360 128 351.09375 128 340 L 128 240 C 128 228.90625 136.90625 220 148 220 Z M 197.96875 227.96875 C 197.867188 227.972656 197.769531 227.980469 197.671875 228 L 154.148438 228 C 144.148438 228 136 236.148438 136 246.148438 L 136 333.84375 C 136 343.84375 144.148438 351.992188 154.148438 351.992188 L 197.632812 351.992188 C 197.878906 352.039062 198.128906 352.039062 198.375 351.992188 L 241.84375 351.992188 C 251.84375 351.992188 259.992188 343.84375 259.992188 333.84375 L 259.992188 286 C 260.003906 285.277344 259.625 284.609375 259 284.246094 C 258.378906 283.878906 257.605469 283.878906 256.984375 284.246094 C 256.359375 284.609375 255.980469 285.277344 255.992188 286 L 255.992188 333.84375 C 255.992188 341.683594 249.683594 347.992188 241.84375 347.992188 L 200 347.992188 L 200 268 L 224 268 C 228.394531 268 232 264.394531 232 260 L 232 256 C 232 251.605469 228.394531 248 224 248 L 200 248 L 200 232 L 218 232 C 218.722656 232.011719 219.390625 231.632812 219.753906 231.007812 C 220.121094 230.386719 220.121094 229.613281 219.753906 228.992188 C 219.390625 228.367188 218.722656 227.988281 218 228 L 198.320312 228 C 198.203125 227.980469 198.085938 227.96875 197.96875 227.96875 Z M 154.148438 232 L 196 232 L 196 248 L 172 248 C 167.605469 248 164 251.605469 164 256 L 164 260 C 164 264.394531 167.605469 268 172 268 L 196 268 L 196 347.992188 L 154.148438 347.992188 C 146.308594 347.992188 140 341.683594 140 333.84375 L 140 246.148438 C 140 238.308594 146.308594 232 154.148438 232 Z M 257.96875 247.96875 C 257.4375 247.976562 256.933594 248.195312 256.5625 248.578125 C 256.195312 248.957031 255.992188 249.46875 256 250 L 256 254 C 255.988281 254.722656 256.367188 255.390625 256.992188 255.753906 C 257.613281 256.121094 258.386719 256.121094 259.007812 255.753906 C 259.632812 255.390625 260.011719 254.722656 260 254 L 260 250 C 260.007812 249.457031 259.796875 248.9375 259.414062 248.554688 C 259.03125 248.171875 258.511719 247.960938 257.96875 247.96875 Z M 172 252 L 197.679688 252 C 197.894531 252.035156 198.113281 252.035156 198.328125 252 L 224 252 C 226.230469 252 228 253.769531 228 256 L 228 260 C 228 262.230469 226.230469 264 224 264 L 198.320312 264 C 198.105469 263.964844 197.886719 263.964844 197.671875 264 L 172 264 C 169.769531 264 168 262.230469 168 260 L 168 256 C 168 253.769531 169.769531 252 172 252 Z M 257.96875 259.96875 C 257.4375 259.976562 256.933594 260.195312 256.5625 260.578125 C 256.195312 260.957031 255.992188 261.46875 256 262 L 256 274 C 255.988281 274.722656 256.367188 275.390625 256.992188 275.753906 C 257.613281 276.121094 258.386719 276.121094 259.007812 275.753906 C 259.632812 275.390625 260.011719 274.722656 260 274 L 260 262 C 260.007812 261.457031 259.796875 260.9375 259.414062 260.554688 C 259.03125 260.171875 258.511719 259.960938 257.96875 259.96875 Z M 157.96875 311.96875 C 157.34375 311.980469 156.761719 312.277344 156.390625 312.78125 L 152.585938 316.585938 C 152.0625 317.085938 151.851562 317.832031 152.035156 318.535156 C 152.21875 319.234375 152.765625 319.78125 153.464844 319.964844 C 154.167969 320.148438 154.914062 319.9375 155.414062 319.414062 L 156 318.828125 L 156 326 C 155.988281 326.722656 156.367188 327.390625 156.992188 327.753906 C 157.613281 328.121094 158.386719 328.121094 159.007812 327.753906 C 159.632812 327.390625 160.011719 326.722656 160 326 L 160 318.828125 L 160.585938 319.414062 C 161.085938 319.9375 161.832031 320.148438 162.535156 319.964844 C 163.234375 319.78125 163.78125 319.234375 163.964844 318.535156 C 164.148438 317.832031 163.9375 317.085938 163.414062 316.585938 L 159.59375 312.765625 C 159.210938 312.257812 158.605469 311.960938 157.96875 311.96875 Z M 173.96875 311.96875 C 173.34375 311.980469 172.761719 312.277344 172.390625 312.78125 L 168.585938 316.585938 C 168.0625 317.085938 167.851562 317.832031 168.035156 318.535156 C 168.21875 319.234375 168.765625 319.78125 169.464844 319.964844 C 170.167969 320.148438 170.914062 319.9375 171.414062 319.414062 L 172 318.828125 L 172 326 C 171.988281 326.722656 172.367188 327.390625 172.992188 327.753906 C 173.613281 328.121094 174.386719 328.121094 175.007812 327.753906 C 175.632812 327.390625 176.011719 326.722656 176 326 L 176 318.828125 L 176.585938 319.414062 C 177.085938 319.9375 177.832031 320.148438 178.535156 319.964844 C 179.234375 319.78125 179.78125 319.234375 179.964844 318.535156 C 180.148438 317.832031 179.9375 317.085938 179.414062 316.585938 L 175.59375 312.765625 C 175.210938 312.257812 174.605469 311.960938 173.96875 311.96875 Z M 150 332 C 149.277344 331.988281 148.609375 332.367188 148.246094 332.992188 C 147.878906 333.613281 147.878906 334.386719 148.246094 335.007812 C 148.609375 335.632812 149.277344 336.011719 150 336 L 182 336 C 182.722656 336.011719 183.390625 335.632812 183.753906 335.007812 C 184.121094 334.386719 184.121094 333.613281 183.753906 332.992188 C 183.390625 332.367188 182.722656 331.988281 182 332 Z M 150 332 "/>
</g>
</svg>
