<svg xmlns="http://www.w3.org/2000/svg"  viewBox="0 0 100 100" width="200px" height="200px"><path fill="#f69272" d="M51.226,79.241H28.193c-4.4,0-8-3.6-8-8v-35c0-4.4,3.6-8,8-8h22c4.4,0,8,3.6,8,8v32.597"/><path fill="none" d="M41.225,78.981H28.193c-4.4,0-8-3.6-8-8v-35c0-4.4,3.6-8,8-8h22c4.4,0,8,3.6,8,8"/><path fill="#fefdef" d="M26.193 35.982L26.193 15.385 30.518 18.63 34.646 15.385 39.142 18.63 43.638 15.385 47.765 18.63 52.193 15.385 52.193 35.982"/><path fill="#a3a3cd" d="M27.693 40.481H50.693V49.481H27.693z"/><path fill="none" d="M29.693 28.481L40.693 28.515"/><path fill="#eddc67" d="M55.464,76.146v4.045c0,1.112,5.371,2.013,11.996,2.013s11.996-0.901,11.996-2.013v-4.045H55.464z"/><path fill="#fef6aa" d="M67.46 74.142A11.996 2.013 0 1 0 67.46 78.168A11.996 2.013 0 1 0 67.46 74.142Z"/><path fill="#eddc67" d="M55.464,69.117v4.045c0,1.112,5.371,2.013,11.996,2.013s11.996-0.901,11.996-2.013v-4.045H55.464z"/><path fill="#fef6aa" d="M67.46 67.113A11.996 2.013 0 1 0 67.46 71.13900000000001A11.996 2.013 0 1 0 67.46 67.113Z"/><path fill="#eddc67" d="M55.464,62.431v4.045c0,1.112,5.371,2.013,11.996,2.013s11.996-0.901,11.996-2.013v-4.045H55.464z"/><path fill="#fef6aa" d="M67.46 60.427A11.996 2.013 0 1 0 67.46 64.453A11.996 2.013 0 1 0 67.46 60.427Z"/><path fill="#eddc67" d="M55.464,55.745v4.045c0,1.112,5.371,2.013,11.996,2.013s11.996-0.901,11.996-2.013v-4.045H55.464z"/><path fill="#fef6aa" d="M67.46 53.741A11.996 2.013 0 1 0 67.46 57.766999999999996A11.996 2.013 0 1 0 67.46 53.741Z"/><path fill="#eddc67" d="M44.137,78.415v4.045c0,1.112,5.371,2.013,11.996,2.013S68.13,83.572,68.13,82.46v-4.045H44.137z"/><path fill="#fef6aa" d="M56.133 76.411A11.996 2.013 0 1 0 56.133 80.43700000000001A11.996 2.013 0 1 0 56.133 76.411Z"/><path fill="#eddc67" d="M44.137,71.727v4.045c0,1.112,5.371,2.013,11.996,2.013s11.996-0.901,11.996-2.013v-4.045H44.137z"/><path fill="#fef6aa" d="M56.133 69.723A11.996 2.013 0 1 0 56.133 73.74900000000001A11.996 2.013 0 1 0 56.133 69.723Z"/><path fill="#eddc67" d="M44.137,65.352v4.045c0,1.112,5.371,2.013,11.996,2.013s11.996-0.901,11.996-2.013v-4.045H44.137z"/><path fill="#fef6aa" d="M56.133 63.348000000000006A11.996 2.013 0 1 0 56.133 67.37400000000001A11.996 2.013 0 1 0 56.133 63.348000000000006Z"/><path fill="#eddc67" d="M55.464,49.059v4.045c0,1.112,5.371,2.013,11.996,2.013s11.996-0.901,11.996-2.013v-4.045H55.464z"/><path fill="#fef6aa" d="M67.46 47.055A11.996 2.013 0 1 0 67.46 51.080999999999996A11.996 2.013 0 1 0 67.46 47.055Z"/><path fill="#eddc67" d="M55.464,42.374v4.045c0,1.112,5.371,2.013,11.996,2.013s11.996-0.901,11.996-2.013v-4.045H55.464z"/><path fill="#fef6aa" d="M67.46 40.370000000000005A11.996 2.013 0 1 0 67.46 44.396A11.996 2.013 0 1 0 67.46 40.370000000000005Z"/><path fill="#1f212b" d="M40.953,77.929h-13c-3.859,0-7-3.141-7-7v-35c0-2.783,1.642-5.176,4-6.302v6.302h-1.5c-0.276,0-0.5,0.224-0.5,0.5s0.224,0.5,0.5,0.5h31c0.276,0,0.5-0.224,0.5-0.5s-0.224-0.5-0.5-0.5h-1.5v-6.293c2.356,1.127,4,3.512,4,6.293c0,0.553,0.447,1,1,1s1-0.447,1-1c0-3.91-2.51-7.233-6-8.472V15.403c0-0.377-0.212-0.722-0.548-0.892c-0.335-0.17-0.738-0.137-1.043,0.085l-3.815,2.796l-3.53-2.775c-0.349-0.275-0.841-0.286-1.203-0.024l-3.912,2.822l-3.911-2.822c-0.361-0.262-0.853-0.251-1.203,0.024l-3.523,2.771l-3.71-2.784c-0.303-0.228-0.708-0.264-1.048-0.095c-0.339,0.17-0.553,0.516-0.553,0.895v12.055c-3.49,1.238-6,4.562-6,8.471v35c0,4.963,4.037,9,9,9h13c0.553,0,1-0.447,1-1S41.505,77.929,40.953,77.929z M26.953,17.403l2.725,2.045c0.363,0.272,0.861,0.266,1.219-0.014l3.534-2.779l3.886,2.804c0.35,0.252,0.82,0.252,1.17,0l3.887-2.804l3.534,2.779c0.352,0.277,0.848,0.286,1.209,0.021l2.837-2.079v18.554h-24V17.403z"/><path fill="#1f212b" d="M50.953 40.429c0-.276-.224-.5-.5-.5h-23c-.276 0-.5.224-.5.5v9c0 .276.224.5.5.5h23c.276 0 .5-.224.5-.5V40.429zM49.953 48.929h-22v-8h22V48.929zM41.453 54.929h-5c-.276 0-.5.224-.5.5s.224.5.5.5h5c.276 0 .5-.224.5-.5S41.729 54.929 41.453 54.929zM32.453 54.929h-5c-.276 0-.5.224-.5.5s.224.5.5.5h5c.276 0 .5-.224.5-.5S32.729 54.929 32.453 54.929zM50.453 54.929h-5c-.276 0-.5.224-.5.5s.224.5.5.5h5c.276 0 .5-.224.5-.5S50.729 54.929 50.453 54.929zM41.453 60.929h-5c-.276 0-.5.224-.5.5s.224.5.5.5h5c.276 0 .5-.224.5-.5S41.729 60.929 41.453 60.929zM32.453 60.929h-5c-.276 0-.5.224-.5.5s.224.5.5.5h5c.276 0 .5-.224.5-.5S32.729 60.929 32.453 60.929zM50.453 60.929h-5c-.276 0-.5.224-.5.5s.224.5.5.5h5c.276 0 .5-.224.5-.5S50.729 60.929 50.453 60.929zM41.453 66.929h-5c-.276 0-.5.224-.5.5s.224.5.5.5h5c.276 0 .5-.224.5-.5S41.729 66.929 41.453 66.929zM32.453 66.929h-5c-.276 0-.5.224-.5.5s.224.5.5.5h5c.276 0 .5-.224.5-.5S32.729 66.929 32.453 66.929zM48.453 23.929h-19c-.276 0-.5.224-.5.5s.224.5.5.5h19c.276 0 .5-.224.5-.5S48.729 23.929 48.453 23.929zM40.455 27.962l-11-.033c-.001 0-.001 0-.002 0-.275 0-.499.223-.5.498-.001.276.223.501.498.502l11 .033c.001 0 .001 0 .002 0 .275 0 .499-.223.5-.498C40.954 28.188 40.73 27.963 40.455 27.962z"/><path fill="#1f212b" d="M79.953,46.445V42.4c0-2.43-11.221-2.5-12.5-2.5s-12.5,0.07-12.5,2.5v4.045c0,0.588,0.655,1.038,1.66,1.383c-0.895,0.306-1.502,0.696-1.623,1.191c-0.023,0.056-0.037,0.116-0.037,0.18v4.045c0,0.588,0.654,1.037,1.658,1.383c-0.889,0.304-1.489,0.691-1.617,1.182c-0.025,0.059-0.041,0.122-0.041,0.191v4.045c0,0.588,0.653,1.037,1.657,1.382c-1.004,0.343-1.657,0.789-1.657,1.373c0,0.041,0.01,0.08,0.017,0.119c-3.395,0.078-11.017,0.478-11.017,2.481v4.045c0,0.506,0.486,0.909,1.259,1.231c-0.774,0.321-1.259,0.721-1.259,1.224v4.045c0,0.507,0.488,0.91,1.264,1.233c-0.775,0.32-1.264,0.719-1.264,1.222v4.045c0,2.443,11.221,2.514,12.5,2.514c1.186,0,10.905-0.062,12.322-2.016c3.302-0.069,11.178-0.449,11.178-2.498V76.4c0-0.585-0.654-1.033-1.66-1.376c1.002-0.345,1.66-0.792,1.66-1.379V69.6c0-0.068-0.015-0.131-0.04-0.19c-0.127-0.492-0.734-0.88-1.628-1.184c1.006-0.345,1.668-0.792,1.668-1.381V62.8c0-0.584-0.656-1.029-1.659-1.372c1.005-0.345,1.659-0.795,1.659-1.383V56c0-0.584-0.654-1.03-1.658-1.372c1.005-0.345,1.658-0.795,1.658-1.383V49.2c0-0.584-0.657-1.029-1.66-1.372C79.298,47.483,79.953,47.033,79.953,46.445z M67.453,40.9c7.167,0,10.949,0.961,11.468,1.5c-0.519,0.539-4.301,1.5-11.468,1.5s-10.949-0.961-11.468-1.5C56.504,41.861,60.286,40.9,67.453,40.9z M56.453,63.9c7.167,0,10.949,0.961,11.468,1.5c-0.519,0.539-4.301,1.5-11.468,1.5s-10.949-0.961-11.468-1.5C45.504,64.861,49.286,63.9,56.453,63.9z M44.953,69.445V66.51c2.776,1.342,10.455,1.39,11.5,1.39c1.046,0,8.73-0.048,11.503-1.392l0.008,2.883c-0.293,0.529-4.082,1.567-11.511,1.567S45.235,69.92,44.953,69.445z M46.953,71.191c3.42,0.736,8.65,0.768,9.499,0.768c0.849,0,6.076-0.032,9.497-0.767c1.115,0.247,1.777,0.507,1.972,0.709c-0.519,0.539-4.301,1.5-11.468,1.5s-10.949-0.961-11.468-1.5C45.179,71.698,45.839,71.438,46.953,71.191z M44.953,75.945V73.01c2.776,1.342,10.455,1.39,11.5,1.39c1.046,0,8.73-0.048,11.503-1.392l0.008,2.883c-0.293,0.529-4.082,1.567-11.511,1.567S45.235,76.42,44.953,75.945z M46.955,77.691c3.42,0.736,8.649,0.768,9.498,0.768c0.849,0,6.075-0.032,9.495-0.767c1.115,0.247,1.779,0.507,1.973,0.708c-0.519,0.539-4.301,1.5-11.468,1.5s-10.949-0.961-11.468-1.5C45.179,78.198,45.84,77.938,46.955,77.691z M56.453,83.958c-7.429,0-11.218-1.038-11.5-1.514V79.51c2.776,1.342,10.455,1.39,11.5,1.39c1.046,0,8.73-0.048,11.503-1.392l0.008,2.883C67.671,82.92,63.882,83.958,56.453,83.958z M68.953,81.94v-3.06c2.649-0.062,7.835-0.321,10.003-1.38l0.008,2.891C78.691,80.883,75.384,81.811,68.953,81.94z M78.921,76.4c-0.486,0.505-3.851,1.376-10.163,1.484c-0.208-0.271-0.578-0.506-1.065-0.708c0.672-0.28,1.125-0.621,1.232-1.038c1.812-0.042,4.831-0.177,7.262-0.602C77.775,75.826,78.686,76.155,78.921,76.4z M68.953,75.138V72.08c2.648-0.061,7.835-0.321,10.003-1.38l0.008,2.892C78.691,74.083,75.381,75.01,68.953,75.138z M78.921,69.6c-0.494,0.513-3.961,1.403-10.47,1.489c-0.201-0.15-0.457-0.287-0.758-0.412c0.774-0.323,1.26-0.726,1.26-1.232v-0.107c1.813-0.042,4.814-0.177,7.231-0.6C77.768,69.027,78.686,69.356,78.921,69.6z M68.953,68.339V65.4c0-0.041-0.011-0.08-0.018-0.12c2.641-0.061,7.844-0.317,10.021-1.378l0.008,2.889C78.691,67.283,75.383,68.21,68.953,68.339z M78.921,62.8c-0.506,0.526-4.127,1.451-10.958,1.496C65.197,62.948,57.499,62.9,56.453,62.9c-0.077,0-0.192,0-0.336,0.001c-0.055-0.035-0.101-0.069-0.132-0.101c0.235-0.244,1.15-0.573,2.731-0.861c3.387,0.592,7.949,0.62,8.737,0.62c0.788,0,5.348-0.028,8.734-0.619C77.769,62.227,78.686,62.556,78.921,62.8z M67.453,61.558c-7.429,0-11.218-1.038-11.5-1.514V57.11c2.776,1.342,10.455,1.39,11.5,1.39c1.046,0,8.73-0.048,11.503-1.392l0.008,2.883C78.671,60.52,74.882,61.558,67.453,61.558z M78.921,56c-0.519,0.539-4.301,1.5-11.468,1.5S56.504,56.539,55.984,56c0.235-0.244,1.152-0.573,2.734-0.861c3.386,0.592,7.946,0.619,8.734,0.619c0.788,0,5.35-0.028,8.737-0.62C77.771,55.427,78.686,55.756,78.921,56z M67.453,54.758c-7.429,0-11.218-1.038-11.5-1.514V50.31c2.776,1.342,10.455,1.39,11.5,1.39c1.046,0,8.73-0.048,11.503-1.392l0.008,2.883C78.671,53.72,74.882,54.758,67.453,54.758z M78.921,49.2c-0.519,0.539-4.301,1.5-11.468,1.5s-10.949-0.961-11.468-1.5c0.235-0.244,1.151-0.573,2.733-0.861c3.386,0.592,7.947,0.62,8.735,0.62c0.788,0,5.343-0.028,8.729-0.618C77.764,48.628,78.686,48.956,78.921,49.2z M67.453,47.958c-7.429,0-11.218-1.038-11.5-1.514V43.51c2.776,1.342,10.455,1.39,11.5,1.39c1.046,0,8.73-0.048,11.503-1.392l0.008,2.883C78.671,46.92,74.882,47.958,67.453,47.958z"/></svg>