<svg xmlns="http://www.w3.org/2000/svg"  viewBox="0 0 512 512" width="240px" height="240px"><path fill="#F6851F" d="M211.6 363.4c-9.4 0-18.6 1.8-27.9 3-11.4 1.4-22.5.6-33.9.2-23.2-.9-46.5-1.3-69.4-5-8.5-1.4-17.1-3-25.5-4.8-1.2 6.7-3 14.4-1 21 2.1 6.9 7.2 11.3 13.6 14.3 14.5 6.8 30.6 8.5 46.4 8.6 9.8.1 19.6-.2 29.4-.2 8.8 0 17.5.8 26.3.6 9-.3 17.8-1.4 26.7-2.1 7.2-.5 14.7-.8 21.6-3.2.4-.1.7-.2 1.1-.3C214.8 385.2 212.6 374.4 211.6 363.4zM211.3 321.3c-.3.1-.7.2-1.1.2-14.4.9-28.8 2.7-43.2 3.7-14 1-28.1.7-42.1-.3-13.9-.9-27.7-2.7-41.2-5.9-9.6-2.3-18.5-5.6-27.5-7.9-4.9-1.2-12.3-2.8-18.6-5.6-1 6.8-1.4 13.7-.4 20.5 1 7 2.9 13.5 9.7 16.7 5.8 2.7 12.1 3.5 18.3 4.7 9 1.6 17.9 3.6 27 4.6 21.4 2.6 43 2.8 64.5 3.8 10.1.5 19.7.5 29.7-1 8.1-1.2 16.2-2.5 24.4-2.5-.4-10.4 0-20.8.4-31C211.3 321.3 211.3 321.3 211.3 321.3z"/><path fill="#FEBF10" d="M197.4 301.2c-9.8.5-19.5 1-29.3 1.6-21.6 1.2-44.1.5-64.5-7.5-8.8-3.5-17.8-8.1-25.7-13.3-3.8-2.5-7-5.6-9.3-9.4-7.9.6-16.2 4-22.8 8.2-2.8 1.8-10.1 7.5-9.2 10.6 1.1.6 1.9 1.4 2.4 2.6 3.1 2.3 7.9 3.4 11.3 4.4 5.3 1.5 10.7 2.5 15.9 4.3 22.4 7.9 46.6 11.3 70.3 11.9 24.5.7 48.5-2.5 72.9-4.1 2.2-.1 3.7.8 4.7 2.1.7-3.9 1.4-7.7 2.6-11.5.4-1.3.8-2.5 1.2-3.8C211.4 299.9 204.2 300.8 197.4 301.2zM224.8 407c-.4-.7-.8-1.3-1.2-2-.5.5-1.2.9-2 1.2-8.3 2.9-17.2 3.2-25.9 3.9-9.6.8-19.2 2-28.9 2.1-10.8.1-21.6-.7-32.4-.6-10.5.2-20.9.3-31.4-.2-4.3-.2-8.8-.6-13.3-1.3.7 2.2.2 4.9-1.9 6.5 0 .2-.1.4-.1.6 0 1.4.1 2.7.2 4.1.4 2.9 1.1 5.7 1.9 8.6 1.7 5.8 4 10.6 9.4 13.9 13.9 8.5 31.7 9.5 47.5 10.5 19.3 1.2 38.7.5 57.8-2.2 17.9-2.5 34.9-7.4 52-13C243.9 430.4 232.5 419.9 224.8 407zM311.1 283.6c-5.1 2.9-10 7.2-11.5 12.9-1.7 6.8-.5 17.6 6.2 21.5 3 1.8 6.3 2.8 9.6 3.3C313.8 308.8 312.1 296.3 311.1 283.6zM322.4 90.6c-7-2.8-15.1-3.4-22.5-4-7.7-.6-15.4-.8-23-.8-15.6-.1-31.1-.6-46.7-1.9-16.3-1.4-32.5-3.1-48.8-4-12.3-.7-24.7-.3-37-.6-7.9-.2-15.7-.5-23.6-.1-8.2.3-16.8.9-24.6 3.7-4.9 1.8-10.8 4.7-10.9 10.7 0 .8-.2 1.5-.4 2.1 16.7 3 33.6 5.4 50.6 6.8 20.4 1.7 40.5 1.3 60.9 1.1 20.2-.2 40.4-1.9 60.6-.8 18.6 1 37.7 3 56.1-.6 4.1-.8 8.3-1.7 12.1-3.4.8-.3 4.1-1.6 4.2-2.7C329.7 93.7 324 91.3 322.4 90.6zM330.5 108.5c-6.9 3.4-15.8 4.5-21.9 5.3-15.1 1.9-30.3.9-45.4.1-31.8-1.8-63.5 1.5-95.3 1-30.8-.5-61.5-3.9-91.8-9.7-2.2 6.4-2.8 14.5-.7 20.4 1.8 5 5.2 6.5 10.2 7.2 6.1.8 12.2 1 18.3 2.2 15.3 2.8 30 6.9 45.7 8 16.1 1.2 32.4 1 48.5.5 16.2-.5 32.3-.8 48.5-1.1 15.5-.3 31.2-.9 46.5-3.5 6-1 11.9-2.4 17.9-3.1 4.8-.6 9.9-1 14.3-3.2C332.7 128.9 333.5 116.1 330.5 108.5zM307.3 189.3c-14 3-28.4 4.6-42.6 6.5-15.7 2.1-31.4 4.1-47.2 5.3-29.5 2.3-58.7 1.1-88.1-1.4-12.4-1.1-24.9-2.6-36.8-6.7-3.3-1.1-6.8-2.5-10.2-4.2-.6.3-1.3.5-2.2.6 1.2-.1.4-.3-.2 1.2-.4 1.1-.7 2.3-.9 3.4-.5 2.9-.8 5.9-.8 8.8-.1 5.3-.5 11.8 2.3 16.5.4.7.9 1.4 1.4 2 .1 0 .2 0 .3 0 3.2 0 5.2 2.3 5.6 4.8 1.9 1.1 3.9 1.9 6 2.7 9.2 3.3 19 5.3 28.6 6.6 21.8 3.1 43.9 3 65.9 2.3 9.8-.3 19.6-.7 29.5-1.1 9.3-.4 18.5-1.1 27-5.1 2.4-1.1 4.4-.4 5.7 1.2 4.9-5.8 10.2-11.2 16.1-16.2 15.3-12.9 34-22.6 53.6-27.9v-4.5C316.4 186.7 312.1 188.3 307.3 189.3z"/><path fill="#F6851F" d="M321.2 148c-.6-.9-.9-1.8-.9-2.7-4 .7-8.1 1.2-12.2 1.8-6 .8-11.8 2.4-17.8 3.2-15.5 2.2-31.1 2.9-46.7 3-32 .3-64.2 3-96.1.4-15.6-1.3-30.3-5.4-45.7-8-6.6-1.1-15.9-.7-23.3-3-.7.5-1.4 1.2-1.8 2-3.5 6.9-2.4 16.2.3 23.2 3.3 8.7 11.8 12.5 20.4 15.1 12 3.7 24.5 5.1 37 6 14 1.1 28.1 2.3 42.2 2.4 31.8.3 63.4-3.4 94.9-7.8 8.1-1.1 16.2-2.2 24.2-3.5 5.2-.8 10.7-1.4 15.6-3.5C321.7 172.6 327.7 157.9 321.2 148zM215.6 248c-11.9.5-23.7 1-35.6 1.2-25.3.5-51.2.1-76-5.9-8.5-2.1-17.2-4.7-24-9.3-4.2 5.6-5.4 12.3-4.9 19.6.3 5.1.8 12 4.7 15.8 4.4 4.4 10.2 6.6 15.5 9.6 7.6 4.4 15.8 7.7 24.3 9.7 17.8 4.1 36.1 4.1 54.2 2.6 8.1-.7 16.2-.6 24.3-1.2 7.1-.6 14.8-1.4 20.7-5.7.3-.2.6-.4.9-.6 1.2-2.7 2.5-5.4 3.8-8 5.3-10.7 11.3-21.2 18.1-31C233.2 247.2 224.3 247.6 215.6 248z"/><path fill="#FEBF10" d="M335.1,276.9c-4.6,0.3-9.1,1.1-13.3,2.4c1,14.2,3,28.4,4.8,42.6c4.3-0.2,8.6-0.6,12.9-0.7C337.8,306.4,336.1,291.7,335.1,276.9z"/><path fill="#FEBF10" d="M439.9,281.1c-29.7-41.2-83.4-67.3-133.9-53.7c-22.5,6.1-42.9,18.8-57.7,36.9c-7.3,8.9-13.3,18.9-17.6,29.6c-2.3,5.7-4.1,11.4-5.4,17.4c-1.3,6.2-1.7,12.5-3.1,18.6c-0.1,0.4-0.2,0.7-0.3,1.1c-0.9,25.3-0.4,52.4,14.6,73.6c14,19.8,36.4,33.3,59,41.4c22.5,8.1,47.2,10.6,70.7,5.7c24.2-5.1,45.6-18.3,61.6-36.9C459.3,378.1,469.5,322.2,439.9,281.1z M337.2,233c7.9,3.1,16.1,2.4,23.2,7.8c5.7,4.3-1.6,12.5-7.3,8.3c-5.6-4.3-14.3-3.7-20.8-6.2C325.7,240.3,330.6,230.5,337.2,233z M238.6,302.3c4.1-5.7,12.4,1.6,8.3,7.3c-3.3,4.5-3.5,13.4-1.9,18.6c2,6.8-8.4,10.4-10.4,3.6C231.8,322.5,232.9,310.3,238.6,302.3z M245.2,390c-4.8-8.5-9.6-17.7-9.9-27.7c-0.3-7.1,10.7-7.9,11-0.8c0.3,8,4.2,15.5,8.1,22.3C257.8,390,248.7,396.2,245.2,390z M258.6,268.3c7.9-7.9,16.1-17.6,27.3-20.6c6.8-1.8,10.5,8.6,3.6,10.4c-9.3,2.5-16.1,10.8-22.7,17.4C261.9,280.6,253.6,273.4,258.6,268.3z M288.1,434.1c-6.1-5.9-14.1-9.2-21-14c-5.8-4,1.5-12.3,7.3-8.3c7,4.8,14.8,8.1,21,14C300.5,430.7,293.3,439,288.1,434.1z M351.2,442.4h-25c-7.1,0-7.9-11-0.8-11h25C357.4,431.5,358.3,442.4,351.2,442.4z M369.9,373.4c-3.7,4.7-8.8,8.5-14.3,11.5c0.6,5.6,1.5,11.1,2.7,16.6c1.2,0.8,2,2.1,2,4v4c0,5.9-8.8,8.6-10.7,2.2c-2.1-7.3-3.5-14.8-4.4-22.4c-2.1,0.7-4.3,1.3-6.4,1.8c-3.3,0.8-6.6,1.2-9.9,1.4c0.3,3.3,1,6.5,2.4,9.3c3.2,6.2-5.9,12.5-9.1,6.2c-2.5-5-3.6-10.4-4.1-15.9c-5.5-0.8-10.8-2.6-15.8-5.2c-4.5-2.4-3.7-10.4,2-10.4h2c2.1,0,3.6,0.9,4.5,2.2c2.3,1,4.7,1.6,7.2,2.1c0-0.5,0-1.1,0.1-1.6c0.5-11.4,1.3-22.2,0.2-33.5c-0.4-4.5-1-9-1.5-13.5c-6.7-0.4-13.4-1.9-18.7-6.2c-7.2-5.9-10.5-15.7-10.3-24.8c0.4-14.7,9.8-24.5,22.5-29.9c-0.1-4.3-0.2-8.6-0.1-13c0.2-7,11.1-7.9,11-0.8c-0.1,3.4-0.1,6.9,0,10.3c4.3-1,8.8-1.6,13.3-1.8c-0.2-3.9-0.3-7.8-0.3-11.7c0-7.1,10.9-7.9,11-0.8c0,4.2,0.1,8.5,0.3,12.7c8.1,0.7,15.7,2.7,21.7,5.8c6.3,3.3,1.4,13.2-4.9,9.9c-4.9-2.5-10.4-4.1-16.1-4.7c1.1,15,2.8,29.9,4.6,44.9c2.5,0.6,4.9,1.4,7.2,2.7C374.7,333.9,382.5,357.5,369.9,373.4z M391.4,249.8c6.1,4.8,12.8,9.7,15.6,17.3c2.5,6.7-7.9,10.3-10.4,3.6c-2-5.5-8-9.2-12.4-12.7C378.6,253.7,385.9,245.4,391.4,249.8z M417.7,394.4c-3.2,9.1-9.2,18.5-18.1,22.7c-6.4,3.1-10-7.4-3.6-10.4c6-2.9,9.8-11.4,11.9-17.3c1-2.8,4.9-3.7,7.4-2.5C418.1,388.5,418.7,391.6,417.7,394.4z M427.6,306.8c-2.3-7.9-9.9-13.1-12-21c-1.8-6.8,8.6-10.5,10.4-3.6c0.9,3.4,3.7,6.3,5.7,9.1c2.6,3.7,5,7.5,6.3,11.9C439.9,309.9,429.5,313.6,427.6,306.8z M432.6,353.3c2.8-3.1,0.7-10.1,0.6-13.9c-0.1-7.1,10.9-7.9,11-0.8c0.1,7.5,2.1,15.8-3.4,22.1C436.2,365.9,427.9,358.7,432.6,353.3z"/><path fill="#F6851F" d="M456.5,262.2c-9.9-18.8-23.2-36.3-40.7-48.6c-21.4-14.9-48.5-20.8-74.3-17.7c-26.1,3.2-52.8,14.6-72,32.9c-2.5,2.3-4.8,4.8-7.1,7.3c26.2-18.9,60.2-27.7,92.2-21.8c25.2,4.6,49,16.5,68.5,33c18.9,16,35,36.3,41.5,60.5c9.3,34.8,1.1,71.7-18.6,101.1c9.9-10.3,17.9-22.3,22.8-36.5C481,337,473.6,294.9,456.5,262.2z"/><path fill="#FEBF10" d="M365 352.9c-.9-8-5.6-15.4-12.9-18.9 0 .4.1.7.1 1.1 1.3 12.3 1.6 24.8 2.3 37.4C361.1 367.9 366 361.7 365 352.9zM328.9 381.6c5.2-.3 10.3-1.5 15.2-3.5-1.1-14-1.3-28.2-2.8-42.1-.2-1.4-.3-2.9-.5-4.3-4.3-.1-8.6.3-12.9.6.4 3.6.8 7.1 1.2 10.7 1.1 11.1.7 21.5.1 32.6C329.1 377.5 329 379.5 328.9 381.6z"/><path d="M358,324.7c-2.3-1.3-4.7-2.1-7.2-2.7c-1.7-14.9-3.5-29.9-4.6-44.9c5.8,0.7,11.3,2.2,16.1,4.7c6.3,3.3,11.2-6.6,4.9-9.9c-5.9-3.1-13.5-5.1-21.7-5.8c-0.2-4.2-0.3-8.5-0.3-12.7c0-7.1-11-6.2-11,0.8c0,3.9,0.1,7.8,0.3,11.7c-4.5,0.2-9,0.8-13.3,1.8c-0.1-3.4-0.1-6.9,0-10.3c0.2-7.1-10.8-6.2-11,0.8c-0.1,4.3-0.1,8.7,0.1,13c-12.7,5.5-22.1,15.2-22.5,29.9c-0.2,9.1,3.1,18.9,10.3,24.8c5.3,4.3,12,5.8,18.7,6.2c0.6,4.5,1.1,9,1.5,13.5c1.1,11.4,0.3,22.2-0.2,33.5c0,0.5,0,1-0.1,1.6c-2.4-0.5-4.8-1.2-7.2-2.1c-1-1.3-2.5-2.2-4.5-2.2h-2c-5.7,0-6.5,8-2,10.4c5,2.7,10.4,4.4,15.8,5.2c0.4,5.5,1.5,10.9,4.1,15.9c3.2,6.3,12.3,0.1,9.1-6.2c-1.4-2.8-2.1-5.9-2.4-9.3c3.3-0.2,6.6-0.6,9.9-1.4c2.1-0.5,4.2-1.1,6.4-1.8c0.9,7.6,2.2,15,4.4,22.4c1.8,6.3,10.7,3.7,10.7-2.2v-4c0-1.9-0.8-3.2-2-4c-1.2-5.5-2.1-11-2.7-16.6c5.5-3,10.6-6.8,14.3-11.5C382.5,357.5,374.7,333.9,358,324.7z M305.8,318.1c-6.7-3.9-8-14.7-6.2-21.5c1.4-5.7,6.4-10.1,11.5-12.9c1,12.6,2.7,25.2,4.4,37.8C312.1,320.9,308.9,319.9,305.8,318.1z M321.8,279.2c4.3-1.2,8.8-2,13.3-2.4c1,14.8,2.7,29.5,4.4,44.2c-4.3,0.1-8.6,0.5-12.9,0.7C324.8,307.6,322.8,293.5,321.8,279.2z M328.9,381.6c0.1-2.1,0.3-4.1,0.4-6c0.6-11.1,1-21.5-0.1-32.6c-0.4-3.6-0.8-7.1-1.2-10.7c4.2-0.3,8.6-0.7,12.9-0.6c0.2,1.4,0.3,2.9,0.5,4.3c1.5,13.9,1.8,28.1,2.8,42.1C339.2,380.1,334,381.3,328.9,381.6z M354.6,372.5c-0.8-12.5-1-25.1-2.3-37.4c0-0.4-0.1-0.7-0.1-1.1c7.3,3.5,12,10.8,12.9,18.9C366,361.7,361.1,367.9,354.6,372.5z"/><path d="M459.8,245.7c-11-18.1-25.9-34-44.1-45.1C393,186.7,365.2,182,339,185.2c-2.6,0.3-5.2,0.7-7.7,1.2v-2.9c0-2.4-2-4.3-4.2-4.9c1.3-1.6,2.6-3.3,3.6-5.2c5.1-9.4,5.6-22.1-0.2-31.2c5.5-2.9,9.3-7.8,11-14.4c2.2-8.5,2-19-2.6-26.8c0.4-0.7,0.7-1.4,0.9-2.2c3.1-9.5-7.6-16.3-15-19c-14-5-30.4-4.7-45.1-4.9c-12.6-0.2-25.2-0.1-37.7-1c-13.6-1-27.1-2.3-40.7-3.5c-20.6-1.7-41.2-1.6-61.9-2.2C120.9,67.7,81,65.5,75,88.8c-7.6,4.6-10.3,13.6-11.2,22.2c-1,8.9-0.4,18.4,5.3,25.6c-9.1,10.2-5.6,29.7,0.1,40.7c0.9,1.7,2,3.2,3.3,4.6c-6.9,7.5-5.9,25.2-4.6,33.2c0.7,4.3,2.1,7.9,4.1,10.9c-3.2,3.5-5.1,7.9-6.5,12.4c-2.3,7.3-2,15.8-0.5,23.4c-8.1,1.1-15.9,4.6-23,8.4c-7.1,3.9-14.9,10.4-16.3,18.8c-0.6,3.6,0.2,6.7,1.9,9.2c-3.2,16.2-4.8,37.7,7.5,49.9c2.5,2.5,5.7,4.3,9,5.6c-2.5,16.4-4,32.8,11,43.8c7.3,5.3,16.1,8.7,25.2,10.8c-3.8,3.2-4.2,8.6-3.6,13.7c0.7,6.2,2.3,13.5,5.3,19c8.7,16.2,29.2,20.2,45.8,22.3c22.6,2.8,45.6,2.9,68.3,0.6c23.2-2.3,45.2-8.5,67.3-15.8c1.8-0.6,2.8-1.7,3.3-3c5.5,3,11.1,5.8,16.8,8.2c27.6,11.7,58.5,15,87.2,8.4c1.3,1.6,3.3,2.4,5.8,1.5c44.5-17.1,89.4-43.4,104.1-91.8C493.3,329.8,481.9,282,459.8,245.7z M85.2,93.5c0.1-6,6-8.9,10.9-10.7c7.8-2.8,16.4-3.3,24.6-3.7c7.9-0.3,15.7-0.1,23.6,0.1c12.3,0.4,24.7,0,37,0.6c16.3,0.9,32.6,2.6,48.8,4c15.6,1.3,31,1.8,46.7,1.9c7.7,0,15.4,0.2,23,0.8c7.4,0.6,15.6,1.2,22.5,4c1.6,0.7,7.3,3.1,6.9,5.3c-0.2,1.1-3.5,2.3-4.2,2.7c-3.8,1.7-8.1,2.6-12.1,3.4c-18.4,3.6-37.5,1.6-56.1,0.6c-20.2-1.1-40.4,0.6-60.6,0.8c-20.4,0.2-40.5,0.6-60.9-1.1c-17-1.4-33.8-3.7-50.6-6.8C85.1,95,85.2,94.3,85.2,93.5z M76.1,105.2c30.3,5.8,61,9.2,91.8,9.7c31.8,0.5,63.5-2.8,95.3-1c15.1,0.8,30.3,1.8,45.4-0.1c6.2-0.8,15.1-1.9,21.9-5.3c3,7.6,2.2,20.4-5.1,24c-4.4,2.1-9.5,2.6-14.3,3.2c-6,0.8-11.9,2.1-17.9,3.1c-15.4,2.6-31,3.3-46.5,3.5c-16.2,0.3-32.3,0.5-48.5,1.1c-16.2,0.5-32.4,0.7-48.5-0.5c-15.6-1.2-30.3-5.2-45.7-8c-6.1-1.1-12.2-1.3-18.3-2.2c-5-0.7-8.5-2.2-10.2-7.2C73.3,119.7,73.9,111.6,76.1,105.2z M218,236.9c-9.8,0.5-19.6,0.8-29.5,1.1c-22,0.6-44.1,0.8-65.9-2.3c-9.6-1.4-19.5-3.3-28.6-6.6c-2.1-0.8-4.1-1.6-6-2.7c-0.5-2.5-2.4-4.8-5.6-4.8c-0.1,0-0.2,0-0.3,0c-0.5-0.6-1-1.3-1.4-2c-2.8-4.7-2.5-11.2-2.3-16.5c0.1-3,0.3-5.9,0.8-8.8c0.2-1.1,0.4-2.3,0.9-3.4c0.6-1.5,1.4-1.3,0.2-1.2c0.8-0.1,1.5-0.3,2.2-0.6c3.4,1.7,6.9,3.1,10.2,4.2c11.9,4.1,24.3,5.7,36.8,6.7c29.4,2.5,58.6,3.7,88.1,1.4c15.8-1.2,31.5-3.2,47.2-5.3c14.2-1.9,28.6-3.5,42.6-6.5c4.7-1,9.1-2.6,13-4.9v4.5c-19.6,5.3-38.3,15-53.6,27.9c-5.8,4.9-11.2,10.4-16.1,16.2c-1.2-1.6-3.2-2.3-5.7-1.2C236.5,235.8,227.2,236.4,218,236.9z M241.6,244.8c-6.9,9.8-12.8,20.3-18.1,31c-1.3,2.7-2.6,5.3-3.8,8c-0.3,0.2-0.6,0.3-0.9,0.6c-5.9,4.3-13.6,5.1-20.7,5.7c-8.1,0.6-16.2,0.6-24.3,1.2c-18.1,1.5-36.4,1.5-54.2-2.6c-8.6-2-16.7-5.3-24.3-9.7c-5.3-3.1-11.1-5.3-15.5-9.6c-3.9-3.9-4.4-10.8-4.7-15.8c-0.5-7.3,0.7-14,4.9-19.6c6.8,4.7,15.6,7.3,24,9.3c24.8,6,50.7,6.4,76,5.9c11.9-0.2,23.7-0.7,35.6-1.2C224.3,247.6,233.2,247.2,241.6,244.8z M311.3,176.8c-4.9,2-10.4,2.6-15.6,3.5c-8.1,1.3-16.2,2.4-24.2,3.5c-31.4,4.5-63.1,8.1-94.9,7.8c-14.1-0.1-28.2-1.4-42.2-2.4c-12.5-1-25-2.4-37-6c-8.6-2.6-17.1-6.5-20.4-15.1c-2.7-7-3.8-16.4-0.3-23.2c0.4-0.8,1-1.5,1.8-2c7.4,2.3,16.7,1.9,23.3,3c15.4,2.6,30,6.8,45.7,8c32,2.6,64.1-0.1,96.1-0.4c15.6-0.1,31.3-0.8,46.7-3c6-0.9,11.8-2.4,17.8-3.2c4.1-0.6,8.1-1,12.2-1.8c0.1,0.9,0.3,1.8,0.9,2.7C327.7,157.9,321.7,172.6,311.3,176.8z M45.8,280.7c6.6-4.2,14.9-7.6,22.8-8.2c2.2,3.8,5.5,6.9,9.3,9.4c7.9,5.2,16.9,9.9,25.7,13.3c20.4,8,42.9,8.7,64.5,7.5c9.8-0.6,19.5-1.1,29.3-1.6c6.8-0.4,14-1.2,20.4-3.8c-0.4,1.2-0.8,2.5-1.2,3.8c-1.2,3.8-1.9,7.6-2.6,11.5c-1-1.4-2.5-2.3-4.7-2.1c-24.4,1.6-48.4,4.7-72.9,4.1c-23.7-0.6-47.9-4-70.3-11.9c-5.2-1.8-10.6-2.9-15.9-4.3c-3.4-0.9-8.1-2.1-11.3-4.4c-0.4-1.1-1.3-2-2.4-2.6C35.7,288.2,43,282.6,45.8,280.7z M46.9,342.8c-6.9-3.2-8.7-9.7-9.7-16.7c-1-6.8-0.6-13.7,0.4-20.5c6.3,2.8,13.8,4.4,18.6,5.6c9,2.3,17.9,5.6,27.5,7.9c13.5,3.2,27.4,5,41.2,5.9c14,0.9,28.1,1.2,42.1,0.3c14.4-1,28.8-2.8,43.2-3.7c0.4,0,0.8-0.1,1.1-0.2c0,0,0,0.1,0,0.1c-0.4,10.2-0.8,20.6-0.4,31c-8.2,0-16.3,1.3-24.4,2.5c-10,1.5-19.6,1.4-29.7,1c-21.5-1-43.1-1.2-64.5-3.8c-9.1-1.1-18-3-27-4.6C59,346.3,52.6,345.5,46.9,342.8z M67.5,392c-6.4-3-11.5-7.4-13.6-14.3c-2-6.6-0.2-14.3,1-21c8.4,1.8,17,3.4,25.5,4.8c22.9,3.8,46.3,4.2,69.4,5c11.4,0.4,22.5,1.3,33.9-0.2c9.3-1.2,18.5-3,27.9-3c1.1,11,3.3,21.9,7.5,32.1c-0.4,0.1-0.7,0.1-1.1,0.3c-6.9,2.4-14.4,2.6-21.6,3.2c-8.9,0.7-17.8,1.8-26.7,2.1c-8.8,0.3-17.5-0.6-26.3-0.6c-9.8,0-19.6,0.3-29.4,0.2C98.1,400.6,82,398.9,67.5,392z M204.6,451.9c-19.1,2.7-38.6,3.3-57.8,2.2c-15.9-1-33.7-1.9-47.5-10.5c-5.4-3.3-7.7-8.1-9.4-13.9c-0.8-2.8-1.5-5.6-1.9-8.6c-0.2-1.4-0.3-2.7-0.2-4.1c0-0.3,0-0.5,0.1-0.6c2.1-1.6,2.6-4.3,1.9-6.5c4.5,0.7,9,1.1,13.3,1.3c10.5,0.6,20.9,0.4,31.4,0.2c10.8-0.2,21.6,0.6,32.4,0.6c9.7-0.1,19.2-1.2,28.9-2.1c8.7-0.7,17.6-1,25.9-3.9c0.8-0.3,1.5-0.7,2-1.2c0.4,0.7,0.8,1.3,1.2,2c7.8,13,19.1,23.5,31.8,31.9C239.5,444.5,222.5,449.4,204.6,451.9z M366,451.8c-23.5,4.9-48.2,2.4-70.7-5.7c-22.6-8.1-44.9-21.6-59-41.4c-15-21.1-15.5-48.3-14.6-73.6c0.1-0.3,0.3-0.7,0.3-1.1c1.4-6.1,1.8-12.4,3.1-18.6c1.3-6,3.1-11.8,5.4-17.4c4.3-10.7,10.3-20.7,17.6-29.6c14.8-18.1,35.2-30.8,57.7-36.9c50.4-13.7,104.2,12.5,133.9,53.7c29.6,41.1,19.4,97-12.2,133.7C411.6,433.5,390.2,446.7,366,451.8z M468.8,372.5C464,386.7,456,398.7,446,409c19.8-29.4,28-66.3,18.6-101.1c-6.5-24.2-22.6-44.5-41.5-60.5c-19.5-16.5-43.3-28.4-68.5-33c-32-5.9-66,2.9-92.2,21.8c2.3-2.5,4.6-4.9,7.1-7.3c19.2-18.3,45.8-29.7,72-32.9c25.8-3.1,52.9,2.8,74.3,17.7c17.6,12.2,30.9,29.7,40.7,48.6C473.6,294.9,481,337,468.8,372.5z"/><path d="M438 303.1c-1.3-4.4-3.7-8.2-6.3-11.9-2-2.8-4.8-5.7-5.7-9.1-1.8-6.9-12.2-3.2-10.4 3.6 2.1 7.9 9.7 13.1 12 21C429.5 313.6 439.9 309.9 438 303.1zM444.2 338.5c-.1-7.1-11.1-6.2-11 .8.1 3.8 2.1 10.8-.6 13.9-4.7 5.3 3.6 12.6 8.3 7.3C446.4 354.4 444.4 346 444.2 338.5zM238.6 302.3c-5.8 8-6.8 20.2-4.1 29.5 2 6.8 12.4 3.2 10.4-3.6-1.5-5.2-1.3-14 1.9-18.6C251 303.9 242.8 296.6 238.6 302.3zM254.3 383.9c-3.9-6.9-7.8-14.3-8.1-22.3-.3-7.1-11.2-6.2-11 .8.4 9.9 5.1 19.2 9.9 27.7C248.7 396.2 257.8 390 254.3 383.9zM295.4 425.8c-6.2-5.9-14-9.2-21-14-5.8-4-13.1 4.2-7.3 8.3 6.9 4.8 14.9 8.1 21 14C293.3 439 300.5 430.7 295.4 425.8zM350.3 431.5h-25c-7.1 0-6.2 11 .8 11h25C358.3 442.4 357.4 431.5 350.3 431.5zM415.2 387c-2.4-1.2-6.4-.4-7.4 2.5-2.1 5.9-5.9 14.4-11.9 17.3-6.3 3-2.8 13.4 3.6 10.4 8.9-4.2 14.9-13.6 18.1-22.7C418.7 391.6 418.1 388.5 415.2 387zM285.9 247.8c-11.2 3-19.5 12.7-27.3 20.6-5 5 3.3 12.3 8.3 7.3 6.6-6.6 13.3-15 22.7-17.4C296.4 256.3 292.8 246 285.9 247.8zM360.4 240.8c-7.1-5.4-15.3-4.7-23.2-7.8-6.6-2.6-11.5 7.3-4.9 9.9 6.5 2.5 15.2 1.9 20.8 6.2C358.8 253.4 366 245.1 360.4 240.8zM407 267.1c-2.8-7.6-9.5-12.5-15.6-17.3-5.5-4.4-12.8 3.8-7.3 8.3 4.4 3.5 10.4 7.2 12.4 12.7C399 277.4 409.4 273.8 407 267.1z"/></svg>