<svg
        fill="current"
        id="a"
        xmlns="http://www.w3.org/2000/svg"
        viewBox="0 0 3820.96 3502.3"
>
    <defs>
        <style>
        </style>
        <clipPath id="b">
        </clipPath>
    </defs>
    <path
            class="d"
            d="M1541.81,2219.62c-25.94-6.58-51.37-15.2-76.01-25.76l-.12-.04v-.02c-97.12-41.74-182.1-114.04-239.01-212.61-140.29-243.06-56.99-553.88,186.01-694.19,243.02-140.31,553.86-57.01,694.19,186.01,56.89,98.57,77.01,208.35,64.63,313.31v-.02l-.04,.14c-3.12,26.64-8.4,52.95-15.68,78.75-73.22,396.74,34.06,582.58,414.28,717.53,25.94,6.58,51.38,15.16,76.01,25.76l.14,.04-.02,.02c97.1,41.74,182.12,114.05,239.04,212.59,140.3,243.04,57.01,553.9-186.05,694.21-243,140.29-553.82,57.01-694.15-186.01-56.91-98.57-77.05-208.31-64.65-313.31l.04-.12c3.14-26.62,8.44-52.94,15.7-78.71,73.24-396.76-34.08-582.61-414.3-717.57m1684.56,15.74c-280.6,0-508.17-227.57-508.17-508.2s227.57-508.18,508.17-508.18,508.2,227.57,508.2,508.18-227.57,508.2-508.2,508.2Z"
    />
</svg>
